# This file uses centimeters as units for non-parametric coordinates.

mtllib knife.mtl
g default
v -158.568035 7.911080 -1.270595
v -158.568035 35.884820 -2.224133
v -158.568035 35.884820 2.119539
v -158.568035 7.911080 1.166001
v -158.568035 1.893132 -0.023995
v -144.767729 6.040713 -1.753553
v -144.767551 35.884820 -1.753557
v -144.767551 35.884820 1.648962
v -144.767729 6.040713 1.648958
v -144.767411 1.155853 -0.012775
v -112.329629 5.308749 -1.753555
v -112.329629 35.884820 -1.753555
v -112.329629 35.884820 1.648963
v -112.329629 5.308744 1.648960
v -112.329629 -0.062374 -0.012775
v -68.288444 6.797610 -1.753555
v -68.288444 35.522046 -1.753555
v -68.288444 35.522046 1.648961
v -68.288444 6.797610 1.648961
v -68.288444 1.784007 -0.012775
v 24.390932 16.161357 -1.583446
v -16.560637 11.179412 -1.753555
v 24.390932 35.252466 -1.583447
v -16.560637 35.522046 -1.753556
v 24.390932 35.252466 1.478853
v -16.560637 35.522046 1.648962
v 24.390932 16.158916 1.478852
v -16.560637 11.179412 1.648961
v 24.390932 11.084742 -0.014852
v -16.539494 5.700666 -0.012775
v 58.006865 22.096105 -1.583446
v 58.006865 17.422631 -0.014852
v 58.006865 34.897756 -1.583447
v 58.006865 34.897756 1.478853
v 58.006865 22.094575 1.478852
v 73.600422 26.405167 -1.583446
v 73.600422 22.064527 -0.014852
v 73.600422 34.897744 -1.583447
v 73.600422 34.897744 1.478853
v 73.600422 26.404386 1.478852
v 85.050665 31.615281 -1.583446
v 85.050665 27.359359 -0.014852
v 85.050665 34.458823 -1.583447
v 85.050665 34.458823 1.478853
v 85.050665 31.615112 1.478852
v -158.568035 35.145019 -2.224133
v -158.568035 35.145016 2.119539
v -158.568035 20.801075 -2.224132
v -158.568035 20.801075 2.119538
v -240.357446 22.321226 2.636489
v -240.357446 22.321226 -2.741083
v -240.357446 33.920655 2.636489
v -240.357446 33.920657 -2.741083
v -234.559516 19.266823 4.387900
v -234.559516 19.266824 -4.492494
v -234.559516 36.380736 4.387901
v -234.559516 36.380739 -4.492495
v -160.877522 21.374875 2.119538
v -160.877522 21.374876 -2.224132
v -160.877522 34.682865 2.119539
v -160.877522 34.682867 -2.224133
v -214.633853 19.266823 3.573864
v -214.633853 19.266824 -3.678457
v -214.633853 36.380736 3.573864
v -214.633853 36.380739 -3.678458
v -161.033882 20.006080 3.130611
v -161.033882 20.006082 -3.235205
v -161.033882 35.785321 3.130612
v -161.033882 35.785324 -3.235206
v -193.746516 20.380817 2.810796
v -193.746516 20.380817 -2.915389
v -193.746516 35.483501 2.810796
v -193.746516 35.483503 -2.915390
v -158.568035 35.884820 -0.001844
v -144.767551 35.884820 -0.012775
v -112.329629 35.884820 -0.012775
v -68.288444 35.522046 -0.012775
v -16.560637 35.522046 -0.012775
v 24.390932 35.252467 -0.012775
v 58.006883 34.897756 -0.012775
v 73.600422 34.897743 -0.012775
v 85.050665 34.458824 -0.012775
v -158.568035 35.145018 -0.001843
v -240.357446 33.920655 -0.001843
v -234.559516 36.380738 -0.001843
v -160.877522 34.682866 -0.001843
v -214.633853 36.380738 -0.001843
v -161.033882 35.785323 0.021644
v -193.746516 35.483503 -0.001843
v -158.568035 7.911080 -0.032015
v -158.568035 20.801075 -0.052297
v -160.877522 21.374876 -0.072082
v -161.033882 20.006081 -0.052297
v -193.746516 20.380817 -0.052297
v -214.633853 19.266824 -0.052297
v -234.559516 19.266824 0.077046
v -240.357446 22.321226 -0.052297
v -180.516948 19.738393 3.284761
v -180.516948 19.738394 -3.389355
v -180.516948 36.000923 3.284762
v -180.516948 36.000927 -3.389356
v -180.516948 36.000925 0.021644
v -180.516948 19.738393 -0.052297
v -180.457942 20.905274 2.251397
v -180.457942 20.905274 -2.355991
v -180.457942 35.061093 2.251398
v -180.457942 35.061095 -2.355992
v -180.457942 35.061094 -0.001844
v -180.457942 20.905274 -0.052297
vt 0.049648 0.964491
vt 0.034828 0.964334
vt 0.038708 0.912874
vt 0.045860 0.912921
vt 0.020507 0.964184
vt 0.032242 0.912833
vt 0.039512 0.786656
vt 0.046262 0.786702
vt 0.033046 0.786615
vt 0.040605 0.615290
vt 0.047514 0.615334
vt 0.034139 0.615249
vt 0.041887 0.414015
vt 0.048155 0.414057
vt 0.035421 0.413974
vt 0.048857 0.254709
vt 0.042903 0.254671
vt 0.037099 0.254634
vt 0.043737 0.123870
vt 0.049964 0.123907
vt 0.037933 0.123833
vt 0.044123 0.063194
vt 0.050157 0.063231
vt 0.038319 0.063157
vt 0.046116 0.018042
vt 0.050020 0.021070
vt 0.042710 0.015166
vt 0.306411 0.032107
vt 0.286152 0.037142
vt 0.280982 0.015554
vt 0.301056 0.010564
vt 0.265113 0.039039
vt 0.261319 0.023775
vt 0.008880 0.968695
vt 0.029070 0.966817
vt 0.031251 0.986194
vt 0.011257 0.990196
vt 0.050542 0.966448
vt 0.051555 0.978806
vt 0.563416 0.058131
vt 0.531575 0.058196
vt 0.532633 0.010773
vt 0.569405 0.011068
vt 0.557801 0.221076
vt 0.532633 0.221173
vt 0.501850 0.058131
vt 0.495861 0.011068
vt 0.556839 0.392013
vt 0.532633 0.392016
vt 0.507465 0.221076
vt 0.555171 0.500742
vt 0.532633 0.500707
vt 0.508427 0.392013
vt 0.510095 0.500742
vt 0.760500 0.065551
vt 0.724650 0.063568
vt 0.727269 0.016217
vt 0.748816 0.017409
vt 0.744851 0.227911
vt 0.715650 0.226296
vt 0.692891 0.061765
vt 0.691960 0.014502
vt 0.729184 0.398148
vt 0.706214 0.396878
vt 0.689429 0.224770
vt 0.718613 0.506421
vt 0.700211 0.505403
vt 0.681763 0.395518
vt 0.677795 0.504182
vt 0.590079 0.707363
vt 0.559486 0.707360
vt 0.559486 0.520096
vt 0.591560 0.520092
vt 0.527411 0.520093
vt 0.528893 0.707363
vt 0.802843 0.713131
vt 0.772986 0.711917
vt 0.780592 0.524808
vt 0.811930 0.526082
vt 0.747833 0.523475
vt 0.741708 0.710647
vt 0.853764 0.068169
vt 0.853570 0.192063
vt 0.832695 0.192063
vt 0.841860 0.068169
vt 0.865279 0.068169
vt 0.874444 0.192063
vt 0.853842 0.010327
vt 0.077221 0.015661
vt 0.061318 0.020106
vt 0.057713 0.009804
vt 0.830856 0.563827
vt 0.856699 0.563827
vt 0.857184 0.675316
vt 0.830856 0.675316
vt 0.882543 0.563827
vt 0.882543 0.675316
vt 0.884163 0.404129
vt 0.863478 0.404129
vt 0.863288 0.390973
vt 0.893881 0.390973
vt 0.842413 0.404129
vt 0.832695 0.390973
vt 0.884163 0.532040
vt 0.893881 0.542637
vt 0.842413 0.532040
vt 0.832695 0.542637
vt 0.862577 0.542637
vt 0.862803 0.532040
vt 0.832695 0.212602
vt 0.864769 0.212602
vt 0.864769 0.223818
vt 0.842627 0.223818
vt 0.886911 0.223818
vt 0.896844 0.212602
vt 0.832695 0.368912
vt 0.842627 0.359879
vt 0.896844 0.368912
vt 0.886911 0.359879
vt 0.865254 0.359879
vt 0.865480 0.368912
vt 0.155088 0.966624
vt 0.104931 0.966624
vt 0.162366 0.912926
vt 0.102698 0.975611
vt 0.165214 0.786705
vt 0.178504 0.966624
vt 0.181373 0.912925
vt 0.159420 0.615335
vt 0.186113 0.786705
vt 0.142370 0.414056
vt 0.178929 0.615335
vt 0.122985 0.254709
vt 0.163689 0.413974
vt 0.142739 0.254709
vt 0.099892 0.123905
vt 0.118077 0.123905
vt 0.083125 0.063228
vt 0.100015 0.063228
vt 0.205640 0.035900
vt 0.208519 0.035900
vt 0.314489 0.035900
vt 0.321767 0.089599
vt 0.205640 0.089599
vt 0.210317 0.026914
vt 0.337906 0.035900
vt 0.340775 0.089600
vt 0.324615 0.215819
vt 0.205640 0.215819
vt 0.345515 0.215819
vt 0.318822 0.387189
vt 0.207051 0.387189
vt 0.338330 0.387189
vt 0.301772 0.588468
vt 0.207051 0.588468
vt 0.323090 0.588551
vt 0.208100 0.747816
vt 0.282396 0.747816
vt 0.302140 0.747816
vt 0.259299 0.878620
vt 0.209481 0.878620
vt 0.277478 0.878620
vt 0.242529 0.939296
vt 0.209481 0.939296
vt 0.259416 0.939296
vt 0.222254 0.983850
vt 0.211189 0.983850
vt 0.238813 0.983850
vt 0.367461 0.061992
vt 0.386244 0.014024
vt 0.372032 0.224905
vt 0.384159 0.395475
vt 0.390662 0.504026
vt 0.377264 0.710648
vt 0.371138 0.523473
vt 0.842413 0.532040
vt 0.832695 0.542637
vt 0.896844 0.368912
vt 0.886911 0.359879
vn -0.043982 -0.051923 -0.997682
vn -0.010423 -0.016489 -0.999810
vn 0.014396 -0.016488 -0.999760
vn 0.012322 0.050497 -0.998648
vn 0.016434 0.053456 -0.998435
vn 0.005675 -0.063037 -0.997995
vn -0.060013 0.998198 0.000000
vn -0.000000 1.000000 0.000000
vn 0.012511 0.047463 0.998795
vn 0.014489 -0.016488 0.999759
vn -0.010103 -0.016489 0.999813
vn -0.043223 -0.050204 0.997803
vn 0.005736 -0.060819 0.998132
vn 0.016437 0.050289 0.998599
vn -0.179267 -0.983800 -0.000257
vn -0.157818 -0.987468 0.000340
vn -0.000000 -0.000000 -1.000000
vn -0.000000 -0.000000 -1.000000
vn 0.000000 -0.000000 -1.000000
vn 0.000000 -0.000000 -1.000000
vn -0.000000 1.000000 0.000000
vn -0.000000 1.000000 0.000000
vn 0.004743 0.999989 0.000000
vn 0.004743 0.999989 0.000000
vn -0.000000 -0.000000 1.000000
vn -0.000000 -0.000000 1.000000
vn -0.000000 -0.000000 1.000000
vn -0.000000 -0.000000 1.000000
vn -0.009266 -0.308257 0.951258
vn -0.009266 -0.308257 0.951258
vn 0.002759 -0.306267 0.951942
vn 0.002807 -0.306259 0.951944
vn -0.009662 -0.321435 -0.946882
vn -0.009662 -0.321435 -0.946882
vn 0.002927 -0.319372 -0.947625
vn 0.002878 -0.319380 -0.947622
vn -0.000000 -0.000000 -1.000000
vn -0.000000 -0.000000 -1.000000
vn 0.003788 0.999993 0.000000
vn 0.003788 0.999993 0.000000
vn 0.003166 -0.051509 0.998668
vn -0.000000 -0.000000 1.000000
vn 0.018187 -0.303242 0.952740
vn 0.019432 -0.316141 -0.948513
vn 0.018968 -0.316248 -0.948487
vn -1.000000 -0.000000 0.000001
vn -1.000000 -0.000000 0.000001
vn 0.004154 -0.000000 -0.999991
vn 0.004154 -0.000000 -0.999991
vn 0.004154 -0.000000 -0.999991
vn 0.004154 -0.000000 -0.999991
vn 0.039791 -0.298857 -0.953468
vn 0.039791 -0.298857 -0.953468
vn 0.039791 -0.298857 -0.953468
vn 0.039791 -0.298857 -0.953468
vn 0.006583 0.999978 -0.000000
vn 0.006583 0.999978 -0.000000
vn 0.006583 0.999978 0.000000
vn 0.006583 0.999978 0.000000
vn 0.004154 -0.000000 0.999991
vn 0.004154 -0.000000 0.999991
vn 0.004154 -0.000000 0.999991
vn 0.004154 -0.000000 0.999991
vn 0.038237 -0.286199 0.957407
vn 0.038237 -0.286199 0.957407
vn 0.038237 -0.286199 0.957407
vn 0.038237 -0.286199 0.957407
vn -0.000000 -0.000000 -1.000000
vn -0.000000 -0.000000 -1.000000
vn -0.000000 1.000000 0.000000
vn 0.000000 1.000000 0.000000
vn 0.003842 -0.047907 0.998844
vn -0.000000 -0.000000 1.000000
vn 0.024206 -0.301833 0.953054
vn 0.025245 -0.314788 -0.948826
vn 0.025245 -0.314788 -0.948826
vn 1.000000 0.000000 0.000000
vn 1.000000 0.000000 0.000000
vn 1.000000 0.000000 0.000000
vn 1.000000 0.000000 0.000000
vn 1.000000 0.000000 0.000000
vn 1.000000 0.000000 0.000000
vn 0.055825 -0.305818 -0.950452
vn 0.055825 -0.305818 -0.950452
vn 0.055825 -0.305818 -0.950452
vn 0.055825 -0.305818 -0.950452
vn 0.000000 -0.000000 -1.000000
vn 0.000000 -0.000000 -1.000000
vn 0.000000 -0.000000 -1.000000
vn 0.000000 -0.000000 -1.000000
vn 0.010551 0.999944 -0.000000
vn 0.010551 0.999944 0.000000
vn 0.010551 0.999944 -0.000000
vn 0.010551 0.999944 -0.000000
vn 0.000000 -0.000000 1.000000
vn 0.000000 -0.000000 1.000000
vn 0.000000 -0.000000 1.000000
vn 0.000000 -0.000000 1.000000
vn 0.053424 -0.292646 0.954727
vn 0.053424 -0.292646 0.954727
vn 0.053424 -0.292646 0.954727
vn 0.053424 -0.292646 0.954727
vn 0.093921 -0.327240 -0.940262
vn 0.093921 -0.327240 -0.940262
vn 0.093921 -0.327240 -0.940262
vn 0.093921 -0.327240 -0.940262
vn 0.000000 -0.000000 -1.000000
vn 0.000000 -0.000000 -1.000000
vn 0.000000 -0.000000 -1.000000
vn 0.000000 -0.000000 -1.000000
vn 0.000001 1.000000 0.000000
vn 0.000001 1.000000 0.000000
vn 0.000001 1.000000 0.000000
vn 0.000001 1.000000 0.000000
vn 0.000000 -0.000000 1.000000
vn 0.000000 -0.000000 1.000000
vn 0.000000 -0.000000 1.000000
vn 0.000000 -0.000000 1.000000
vn 0.089952 -0.313385 0.945356
vn 0.089952 -0.313385 0.945356
vn 0.089952 -0.313385 0.945356
vn 0.089952 -0.313385 0.945356
vn 0.155350 -0.338658 -0.927996
vn 0.155350 -0.338658 -0.927996
vn 0.155350 -0.338658 -0.927996
vn 0.155350 -0.338658 -0.927996
vn 0.000000 -0.000000 -1.000000
vn 0.000000 -0.000000 -1.000000
vn 0.000000 -0.000000 -1.000000
vn 0.000000 -0.000000 -1.000000
vn 0.038305 0.999266 0.000000
vn 0.038305 0.999266 -0.000000
vn 0.038305 0.999266 -0.000000
vn 0.038305 0.999266 0.000000
vn 0.000000 -0.000000 1.000000
vn 0.000000 -0.000000 1.000000
vn 0.000000 -0.000000 1.000000
vn 0.000000 -0.000000 1.000000
vn 0.148922 -0.324628 0.934044
vn 0.148922 -0.324628 0.934044
vn 0.148922 -0.324628 0.934044
vn 0.148922 -0.324628 0.934044
vn -1.000000 -0.000000 0.000000
vn -1.000000 -0.000000 -0.000005
vn -1.000000 -0.000000 -0.000004
vn -1.000000 -0.000000 -0.000004
vn -1.000000 -0.000000 -0.000005
vn -0.241123 -0.970495 0.000000
vn -0.241123 -0.970495 -0.000000
vn 0.406591 -0.913610 0.000000
vn 0.571250 -0.820776 0.000000
vn -0.000000 -0.000000 1.000000
vn -0.000000 -0.000000 1.000000
vn 0.494241 -0.000000 0.869325
vn 0.500288 -0.000000 0.865859
vn -0.196220 0.980560 0.000001
vn -0.196220 0.980560 0.000001
vn 0.337560 0.941304 0.000001
vn 0.509400 0.860530 0.000000
vn -0.000000 -0.000000 -1.000000
vn -0.000000 -0.000000 -1.000000
vn 0.500287 -0.000000 -0.865860
vn 0.494240 -0.000000 -0.869326
vn -0.094778 -0.995499 0.000000
vn -0.107130 -0.994245 -0.000000
vn -0.466088 -0.884738 0.000000
vn -0.466088 -0.884738 0.000000
vn -0.009352 -0.000000 0.999956
vn -0.012473 -0.000000 0.999922
vn -0.289169 -0.000000 0.957278
vn -0.289169 -0.000000 0.957278
vn -0.075746 0.997127 0.000000
vn -0.086470 0.996254 0.000000
vn -0.390597 0.920562 0.000000
vn -0.390598 0.920562 0.000000
vn -0.012473 -0.000000 -0.999922
vn -0.009352 -0.000000 -0.999956
vn -0.289170 -0.000000 -0.957278
vn -0.289170 -0.000000 -0.957278
vn 0.070795 -0.997491 -0.000000
vn 0.047644 -0.998864 -0.000000
vn 0.030073 -0.000000 0.999548
vn 0.026906 -0.000000 0.999638
vn 0.057055 0.998371 0.000000
vn 0.035445 0.999372 0.000000
vn 0.026906 -0.000000 -0.999638
vn 0.030073 -0.000000 -0.999548
vn 0.023535 -0.999723 0.000000
vn 0.024392 -0.999702 -0.000000
vn 0.038716 -0.000000 0.999250
vn 0.038708 -0.000000 0.999251
vn 0.019093 0.999818 0.000001
vn 0.019648 0.999807 0.000000
vn 0.038708 -0.000000 -0.999251
vn 0.038716 -0.000000 -0.999250
vn -0.038148 -0.999272 -0.000000
vn -0.014349 -0.999897 -0.000000
vn -0.019024 -0.000000 0.999819
vn -0.015571 -0.000000 0.999879
vn -0.030719 0.999528 0.000000
vn -0.008691 0.999962 0.000000
vn -0.015571 -0.000000 -0.999879
vn -0.019024 -0.000000 -0.999819
vn 0.048767 -0.998810 -0.000000
vn 0.048613 -0.998818 -0.000000
vn 0.038466 -0.000000 0.999260
vn 0.038481 -0.000000 0.999259
vn 0.039304 0.999227 0.000001
vn 0.039171 0.999233 0.000000
vn 0.038481 -0.000000 -0.999259
vn 0.038466 -0.000000 -0.999260
vn -0.000000 1.000000 0.000000
vn 0.004743 0.999989 0.000000
vn 0.003788 0.999993 0.000000
vn 0.006583 0.999978 0.000000
vn 0.006583 0.999978 0.000000
vn -0.000000 1.000000 0.000000
vn 0.010551 0.999944 0.000000
vn 0.010551 0.999944 0.000000
vn 0.000001 1.000000 -0.000000
vn 0.000001 1.000000 -0.000000
vn 0.038305 0.999266 -0.000000
vn 0.038305 0.999266 -0.000000
vn -0.196220 0.980560 0.000001
vn 0.509401 0.860529 0.000001
vn -0.075949 0.997112 0.000000
vn -0.390597 0.920562 0.000001
vn 0.035471 0.999371 0.000001
vn 0.019158 0.999816 0.000000
vn -0.045626 0.998959 0.000000
vn -0.083830 0.996480 0.000000
vn 0.039285 0.999228 0.000000
vn -0.241123 -0.970495 -0.000000
vn 0.570445 -0.821336 0.000001
vn 0.047894 -0.998852 -0.000000
vn -0.056583 -0.998398 -0.000000
vn -0.097155 -0.995269 -0.000000
vn 0.048767 -0.998810 -0.000000
vn 0.023957 -0.999713 -0.000000
vn -0.094454 -0.995529 -0.000000
vn -0.466088 -0.884738 0.000000
vn -1.000000 -0.000000 -0.000002
vn -1.000000 -0.000000 -0.000002
vn -0.097156 -0.995269 -0.000000
vn -0.074629 -0.000000 0.997211
vn -0.079507 -0.000000 0.996834
vn -0.083248 0.996529 0.000000
vn -0.079507 -0.000000 -0.996834
vn -0.074629 -0.000000 -0.997211
vn -0.008666 0.999963 0.000001
vn -0.014349 -0.999897 -0.000000
s 1
g pCone1
usemtl lambert2SG
f 1/122/1 48/123/2 46/38/3 2/1/4 7/4/5 6/124/6
f 2/1/4 74/2/7 75/3/8 7/4/5
f 3/140/9 47/141/10 49/32/11 4/142/12 9/143/13 8/144/14
f 4/142/12 5/146/15 10/147/16 9/143/13
f 5/127/15 1/122/1 6/124/6 10/128/16
s 3
f 6/124/17 7/4/18 12/8/19 11/126/20
s 4
f 7/4/21 75/3/22 76/7/23 12/8/24
s 5
f 8/144/25 9/143/26 14/148/27 13/149/28
f 9/143/29 10/147/30 15/150/31 14/148/32
s 7
f 10/128/33 6/124/34 11/126/35 15/130/36
s 3
f 11/126/20 12/8/19 17/11/37 16/129/38
s 4
f 12/8/24 76/7/23 77/10/39 17/11/40
s 5
f 13/149/28 14/148/27 19/151/41 18/152/42
f 14/148/32 15/150/31 20/153/43 19/151/41
s 7
f 15/130/36 11/126/35 16/129/44 20/132/45
s 1
f 90/82/46 91/83/47 48/84/2 1/85/1
s off
f 21/133/48 22/131/49 24/14/50 23/16/51
f 22/131/52 21/133/53 29/135/54 30/134/55
s 8
f 23/16/56 24/14/57 78/13/58 79/17/59
s off
f 25/157/60 26/155/61 28/154/62 27/158/63
f 27/158/64 28/154/65 30/156/66 29/159/67
s 3
f 16/129/38 17/11/37 24/14/68 22/131/69
s 4
f 17/11/40 77/10/39 78/13/70 24/14/71
s 5
f 18/152/42 19/151/41 28/154/72 26/155/73
f 19/151/41 20/153/43 30/156/74 28/154/72
s 7
f 20/132/45 16/129/44 22/131/75 30/134/76
s off
f 42/89/77 41/90/78 43/26/79 82/25/80 44/27/81 45/91/82
f 29/135/83 21/133/84 31/136/85 32/137/86
f 21/133/87 23/16/88 33/20/89 31/136/90
s 9
f 23/16/91 79/17/92 80/19/93 33/20/94
s off
f 25/157/95 27/158/96 35/160/97 34/161/98
f 27/158/99 29/159/100 32/162/101 35/160/102
f 32/137/103 31/136/104 36/138/105 37/139/106
f 31/136/107 33/20/108 38/23/109 36/138/110
s 10
f 33/20/111 80/19/112 81/22/113 38/23/114
s off
f 34/161/115 35/160/116 40/163/117 39/164/118
f 35/160/119 32/162/120 37/165/121 40/163/122
f 37/139/123 36/138/124 41/90/125 42/89/126
f 36/138/127 38/23/128 43/26/129 41/90/130
s 11
f 38/23/131 81/22/132 82/25/133 43/26/134
s off
f 39/164/135 40/163/136 45/166/137 44/167/138
f 40/163/139 37/165/140 42/168/141 45/166/142
s 1
f 5/88/15 90/82/46 1/85/1
f 46/38/3 83/35/143 74/2/7 2/1/4
s 12
f 51/92/144 97/93/145 84/94/146 53/95/147
s 13
f 48/28/148 91/29/149 92/30/150 59/31/151
s 14
f 49/32/152 47/141/153 60/145/154 58/33/155
s 15
f 47/34/156 83/35/157 86/36/158 60/37/159
s 16
f 46/38/160 48/123/161 59/125/162 61/39/163
s 13
f 55/40/164 96/41/165 97/42/166 51/43/167
s 14
f 54/46/168 56/169/169 52/170/170 50/47/171
s 15
f 56/55/172 85/56/173 84/57/174 52/58/175
s 16
f 57/61/176 55/40/177 51/43/178 53/62/179
s 13
f 59/98/151 92/99/150 93/100/180 67/101/181
s 14
f 58/102/155 60/106/154 68/177/182 66/103/183
s 15
f 60/176/159 86/109/158 88/108/184 68/107/185
s 16
f 61/104/163 59/98/162 67/101/186 69/105/187
s 13
f 63/44/188 95/45/189 96/41/165 55/40/164
s 14
f 62/50/190 64/171/191 56/169/169 54/46/168
s 15
f 64/59/192 87/60/193 85/56/173 56/55/172
s 16
f 65/65/194 63/44/195 55/40/177 57/61/176
s 13
f 67/70/181 93/71/180 103/72/196 99/73/197
s 14
f 66/75/183 68/174/182 100/175/198 98/74/199
s 15
f 68/76/185 88/77/184 102/78/200 100/79/201
s 16
f 69/81/187 67/70/186 99/73/202 101/80/203
s 13
f 71/48/204 94/49/205 95/45/189 63/44/188
s 14
f 70/53/206 72/172/207 64/171/191 62/50/190
s 15
f 72/63/208 89/64/209 87/60/193 64/59/192
s 16
f 73/68/210 71/48/211 63/44/195 65/65/194
s 1
f 75/3/8 74/2/7 3/5/9 8/6/14
s 4
f 76/7/23 75/3/22 8/6/212 13/9/213
f 77/10/39 76/7/23 13/9/213 18/12/214
s 8
f 79/17/59 78/13/58 26/15/215 25/18/216
s 4
f 78/13/70 77/10/39 18/12/214 26/15/217
s 9
f 80/19/93 79/17/92 25/18/218 34/21/219
s 10
f 81/22/113 80/19/112 34/21/220 39/24/221
s 11
f 82/25/133 81/22/132 39/24/222 44/27/223
s 1
f 74/2/7 83/35/143 47/34/10 3/5/9
s 15
f 86/36/158 83/35/157 46/38/224 61/39/225
f 84/57/174 85/56/173 57/61/226 53/62/227
f 88/108/184 86/109/158 61/104/225 69/105/228
f 85/56/173 87/60/193 65/65/229 57/61/226
f 89/64/209 108/67/230 107/69/231 73/68/232
f 87/60/193 89/64/209 73/68/232 65/65/229
s 1
f 4/86/12 90/82/46 5/88/15
f 4/86/12 49/87/11 91/83/47 90/82/46
s 13
f 92/30/150 91/29/149 49/32/233 58/33/234
f 93/100/180 92/99/150 58/102/234 66/103/235
f 94/49/205 109/52/236 104/54/237 70/53/238
f 95/45/189 94/49/205 70/53/238 62/50/239
f 96/41/165 95/45/189 62/50/239 54/46/240
f 97/42/166 96/41/165 54/46/240 50/47/241
s 12
f 84/94/146 97/93/145 50/96/242 52/97/243
s 13
f 99/110/197 103/111/196 109/112/236 105/113/244
s 14
f 98/115/199 100/118/198 106/179/245 104/114/246
s 15
f 100/178/201 102/121/200 108/120/230 106/119/247
s 16
f 101/116/203 99/110/202 105/113/248 107/117/249
s 15
f 101/80/250 102/78/200 88/77/184 69/81/228
s 13
f 98/74/251 103/72/196 93/71/180 66/75/235
s 15
f 107/117/231 108/120/230 102/121/200 101/116/250
s 13
f 104/114/237 109/112/236 103/111/196 98/115/251
f 105/51/244 109/52/236 94/49/205 71/48/204
s 14
f 104/54/246 106/173/245 72/172/207 70/53/206
s 15
f 106/66/247 108/67/230 89/64/209 72/63/208
s 16
f 107/69/249 105/51/248 71/48/211 73/68/210
