# This file uses centimeters as units for non-parametric coordinates.

mtllib bowl.mtl
g default
v 0.250000 0.048943 -0.181636
v 0.095491 0.048943 -0.293893
v -0.095492 0.048943 -0.293893
v -0.250000 0.048943 -0.181636
v -0.309017 0.048943 0.000000
v -0.250000 0.048943 0.181636
v -0.095491 0.048943 0.293893
v 0.095492 0.048943 0.293893
v 0.250000 0.048943 0.181636
v 0.309017 0.048943 0.000000
v 0.475528 0.190983 -0.345492
v 0.181636 0.190983 -0.559017
v -0.181636 0.190983 -0.559017
v -0.475528 0.190983 -0.345491
v -0.587785 0.190983 0.000000
v -0.475528 0.190983 0.345492
v -0.181636 0.190983 0.559017
v 0.181636 0.190983 0.559017
v 0.475528 0.190983 0.345491
v 0.587785 0.190983 0.000000
v 0.654509 0.420332 -0.475528
v 0.250000 0.412215 -0.769421
v -0.250000 0.412215 -0.769421
v -0.654509 0.412215 -0.475528
v -0.809017 0.412215 0.000000
v -0.654509 0.412215 0.475528
v -0.250000 0.412215 0.769421
v 0.250000 0.412215 0.769421
v 0.654509 0.412215 0.475528
v 0.809017 0.412215 0.000000
v 0.769421 0.690983 -0.559017
v 0.293893 0.690983 -0.904509
v -0.293893 0.690983 -0.904509
v -0.769421 0.690983 -0.559017
v -0.951057 0.690983 0.000000
v -0.769421 0.690983 0.559017
v -0.293893 0.690983 0.904509
v 0.293893 0.690983 0.904509
v 0.769421 0.690983 0.559017
v 0.951057 0.690983 0.000000
v 0.809017 1.000000 -0.587785
v 0.309017 1.000000 -0.951057
v -0.309017 1.000000 -0.951057
v -0.809017 1.000000 -0.587785
v -1.000000 1.000000 0.000000
v -0.809017 1.000000 0.587785
v -0.309017 1.000000 0.951057
v 0.309017 1.000000 0.951057
v 0.809017 1.000000 0.587785
v 1.000000 1.000000 0.000000
v 0.751102 1.002401 -0.541785
v 0.286895 1.002401 -0.876627
v -0.286896 1.002401 -0.876627
v -0.751103 1.002401 -0.541785
v -0.928414 1.002401 0.000000
v -0.751102 1.002401 0.541785
v -0.286896 1.002401 0.876627
v 0.286896 1.002401 0.876627
v 0.751102 1.002401 0.541785
v 0.928414 1.002401 -0.000000
v 0.638926 0.514761 -0.416490
v 0.244048 0.514761 -0.673895
v -0.244048 0.514761 -0.673895
v -0.638926 0.514761 -0.416490
v -0.789756 0.514761 0.000000
v -0.638926 0.514761 0.416490
v -0.244048 0.514761 0.673895
v 0.244048 0.514761 0.673895
v 0.638926 0.514761 0.416490
v 0.789756 0.514761 -0.000000
v 0.464207 0.194550 -0.302598
v 0.177311 0.194550 -0.489613
v -0.177311 0.194550 -0.489613
v -0.464207 0.194550 -0.302598
v -0.573791 0.194550 0.000000
v -0.464207 0.194550 0.302598
v -0.177311 0.194550 0.489613
v 0.177311 0.194550 0.489613
v 0.464207 0.194550 0.302598
v 0.573791 0.194550 -0.000000
v 0.244048 0.082044 -0.159085
v 0.093218 0.082044 -0.257405
v -0.093218 0.082044 -0.257405
v -0.244048 0.082044 -0.159085
v -0.301660 0.082044 0.000000
v -0.244048 0.082044 0.159085
v -0.093218 0.082044 0.257405
v 0.093218 0.082044 0.257405
v 0.244048 0.082044 0.159085
v 0.301660 0.082044 -0.000000
v 0.000000 0.030386 0.000000
v -0.000000 0.082044 -0.000000
vt 1.007266 1.187824
vt 0.940090 1.089334
vt 0.997410 1.036715
vt 1.077052 1.153438
vt 0.937092 1.221305
vt 0.882166 1.141219
vt 0.847909 1.013631
vt 0.888159 0.947165
vt 1.054363 0.984018
vt 1.146500 1.118843
vt 1.043968 1.301216
vt 1.120510 1.287968
vt 0.806995 1.079659
vt 0.738004 0.966664
vt 0.758113 0.891955
vt 0.928120 0.880706
vt 1.196848 1.274302
vt 0.778347 0.817273
vt 0.861189 1.717821
vt 0.952786 1.637665
vt 1.012446 1.686535
vt 0.906434 1.785084
vt 0.825871 1.646313
vt 0.895457 1.586283
vt 1.017148 1.536146
vt 1.086827 1.565782
vt 1.074251 1.733925
vt 0.960006 1.844448
vt 0.618510 0.951948
vt 0.617385 0.875034
vt 0.943756 1.503490
vt 1.046549 1.420270
vt 1.123773 1.429473
vt 1.158624 1.595208
vt 0.618328 0.798089
vt 1.200903 1.437764
vt 1.763888 0.896819
vt 1.725557 1.079501
vt 1.573726 1.025927
vt 1.601348 0.894119
vt 1.639918 1.244504
vt 1.511420 1.145848
vt 1.458527 0.984665
vt 1.481377 0.881118
vt 1.754030 0.711544
vt 1.591037 0.749520
vt 1.519636 1.381538
vt 1.410499 1.253297
vt 1.411235 1.079252
vt 1.277563 0.184129
vt 1.446769 0.262740
vt 1.359527 0.398270
vt 1.237406 0.341461
vt 1.588568 0.384120
vt 1.461863 0.485743
vt 1.293210 0.501398
vt 1.197706 0.455288
vt 1.095732 0.151562
vt 1.093715 0.318476
vt 1.693630 0.536705
vt 1.542509 0.606359
vt 1.374657 0.569379
vt 0.546681 0.603856
vt 0.543275 0.560778
vt 0.971187 1.410332
vt 0.478688 0.587559
vt 0.515199 0.527930
vt 0.967404 1.313482
vt 0.524116 0.640708
vt 0.571245 0.694075
vt 0.473177 0.517857
vt 0.484200 0.657260
vt 0.433260 0.534409
vt 0.442178 0.647188
vt 0.622012 1.029477
vt 0.410695 0.571261
vt 0.414102 0.614339
vt 0.717721 1.041438
vt 0.352678 0.045434
vt 0.435463 0.159378
vt 0.418494 0.164422
vt 0.342190 0.058639
vt 0.435464 0.300222
vt 0.418494 0.295178
vt 0.218728 0.001910
vt 0.218728 0.018233
vt 0.352677 0.414167
vt 0.342190 0.400962
vt 0.084778 0.045433
vt 0.095266 0.058639
vt 0.218728 0.457689
vt 0.218728 0.441366
vt 0.001992 0.159378
vt 0.018962 0.164422
vt 0.084778 0.414167
vt 0.095266 0.400961
vt 0.001992 0.300222
vt 0.018962 0.295178
vt 0.256705 0.690868
vt 0.188060 0.729156
vt 0.172078 0.671400
vt 0.206756 0.652486
vt 0.106736 0.723048
vt 0.131382 0.667939
vt 0.156134 0.613453
vt 0.286577 0.623621
vt 0.222240 0.618646
vt 0.044787 0.674406
vt 0.100033 0.644072
vt 0.267481 0.552499
vt 0.212235 0.582834
vt 0.025691 0.603285
vt 0.090028 0.608259
vt 0.205532 0.503858
vt 0.180886 0.558966
vt 0.055564 0.536038
vt 0.105512 0.574420
vt 0.124208 0.497750
vt 0.140190 0.555506
vt 1.474538 0.769916
vt 1.436928 0.661699
vt 0.914163 0.167466
vt 0.941065 0.333380
vt 1.088247 0.436585
vt 0.975531 0.448762
vt 1.335768 1.158673
vt 0.616177 0.619329
vt 0.490959 0.728135
vt 0.405987 0.708500
vt 0.348784 0.642670
vt 0.341200 0.555788
vt 0.386132 0.481042
vt 0.466417 0.446982
vt 0.551390 0.466617
vt 0.608593 0.532448
vt 0.474828 0.894081
vt 0.463517 0.816492
vt 0.496814 0.971951
vt 0.529989 1.046124
vn 0.277578 -0.881468 -0.382053
vn 0.277578 -0.881468 -0.382053
vn 0.277578 -0.881468 -0.382053
vn 0.277578 -0.881468 -0.382053
vn -0.000000 -0.881468 -0.472244
vn -0.000000 -0.881468 -0.472244
vn -0.000000 -0.881468 -0.472244
vn -0.000000 -0.881468 -0.472244
vn -0.277578 -0.881468 -0.382053
vn -0.277578 -0.881468 -0.382053
vn -0.277578 -0.881468 -0.382053
vn -0.277578 -0.881468 -0.382053
vn -0.449130 -0.881468 -0.145931
vn -0.449130 -0.881468 -0.145931
vn -0.449130 -0.881468 -0.145931
vn -0.449130 -0.881468 -0.145931
vn -0.449130 -0.881468 0.145931
vn -0.449130 -0.881468 0.145931
vn -0.449130 -0.881468 0.145931
vn -0.449130 -0.881468 0.145931
vn -0.277578 -0.881468 0.382053
vn -0.277578 -0.881468 0.382053
vn -0.277578 -0.881468 0.382053
vn -0.277578 -0.881468 0.382053
vn 0.000000 -0.881468 0.472244
vn 0.000000 -0.881468 0.472244
vn 0.000000 -0.881468 0.472244
vn 0.000000 -0.881468 0.472244
vn 0.277578 -0.881468 0.382053
vn 0.277578 -0.881468 0.382053
vn 0.277578 -0.881468 0.382053
vn 0.277578 -0.881468 0.382053
vn 0.449130 -0.881468 0.145931
vn 0.449130 -0.881468 0.145931
vn 0.449131 -0.881468 0.145931
vn 0.449131 -0.881468 0.145931
vn 0.449131 -0.881468 -0.145931
vn 0.449131 -0.881468 -0.145931
vn 0.449131 -0.881468 -0.145931
vn 0.449131 -0.881468 -0.145931
vn 0.434760 -0.682535 -0.587478
vn 0.434760 -0.682535 -0.587478
vn 0.434760 -0.682535 -0.587478
vn 0.434760 -0.682535 -0.587478
vn -0.000000 -0.689152 -0.724617
vn -0.000000 -0.689152 -0.724617
vn -0.000000 -0.689152 -0.724617
vn -0.000000 -0.689152 -0.724617
vn -0.425919 -0.689152 -0.586228
vn -0.425919 -0.689152 -0.586228
vn -0.425919 -0.689152 -0.586228
vn -0.425919 -0.689152 -0.586228
vn -0.689152 -0.689152 -0.223919
vn -0.689152 -0.689152 -0.223919
vn -0.689152 -0.689152 -0.223919
vn -0.689152 -0.689152 -0.223919
vn -0.689152 -0.689152 0.223919
vn -0.689152 -0.689152 0.223919
vn -0.689152 -0.689152 0.223919
vn -0.689152 -0.689152 0.223919
vn -0.425919 -0.689152 0.586228
vn -0.425919 -0.689152 0.586228
vn -0.425919 -0.689152 0.586228
vn -0.425919 -0.689152 0.586228
vn 0.000000 -0.689152 0.724617
vn 0.000000 -0.689152 0.724617
vn 0.000000 -0.689152 0.724617
vn 0.000000 -0.689152 0.724617
vn 0.425919 -0.689152 0.586227
vn 0.425919 -0.689152 0.586227
vn 0.425919 -0.689152 0.586227
vn 0.425919 -0.689152 0.586227
vn 0.689152 -0.689152 0.223919
vn 0.689152 -0.689152 0.223919
vn 0.689152 -0.689152 0.223919
vn 0.689152 -0.689152 0.223919
vn 0.693073 -0.682535 -0.231941
vn 0.693073 -0.682534 -0.231941
vn 0.693073 -0.682535 -0.231941
vn 0.693073 -0.682535 -0.231941
vn 0.530122 -0.441277 -0.724048
vn 0.530122 -0.441277 -0.724048
vn 0.530122 -0.441277 -0.724048
vn 0.530122 -0.441277 -0.724048
vn -0.000000 -0.436083 -0.899906
vn -0.000000 -0.436083 -0.899906
vn -0.000000 -0.436083 -0.899906
vn -0.000000 -0.436083 -0.899906
vn -0.528952 -0.436083 -0.728040
vn -0.528952 -0.436083 -0.728040
vn -0.528952 -0.436083 -0.728040
vn -0.528952 -0.436083 -0.728039
vn -0.855862 -0.436083 -0.278086
vn -0.855862 -0.436083 -0.278086
vn -0.855862 -0.436083 -0.278086
vn -0.855862 -0.436083 -0.278086
vn -0.855862 -0.436083 0.278086
vn -0.855862 -0.436083 0.278086
vn -0.855862 -0.436083 0.278086
vn -0.855862 -0.436083 0.278086
vn -0.528952 -0.436083 0.728040
vn -0.528952 -0.436083 0.728039
vn -0.528952 -0.436083 0.728039
vn -0.528952 -0.436083 0.728039
vn 0.000000 -0.436083 0.899906
vn 0.000000 -0.436083 0.899906
vn 0.000000 -0.436083 0.899906
vn 0.000000 -0.436083 0.899906
vn 0.528952 -0.436083 0.728039
vn 0.528952 -0.436083 0.728040
vn 0.528952 -0.436083 0.728040
vn 0.528952 -0.436083 0.728040
vn 0.855862 -0.436083 0.278086
vn 0.855862 -0.436083 0.278086
vn 0.855862 -0.436083 0.278086
vn 0.855862 -0.436083 0.278086
vn 0.852427 -0.441277 -0.280433
vn 0.852427 -0.441277 -0.280433
vn 0.852427 -0.441277 -0.280433
vn 0.852427 -0.441277 -0.280433
vn 0.581228 -0.148952 -0.799992
vn 0.581228 -0.148952 -0.799992
vn 0.581228 -0.148952 -0.799992
vn 0.581228 -0.148952 -0.799992
vn -0.000000 -0.148952 -0.988844
vn -0.000000 -0.148952 -0.988844
vn -0.000000 -0.148952 -0.988844
vn -0.000000 -0.148952 -0.988844
vn -0.581228 -0.148952 -0.799992
vn -0.581228 -0.148952 -0.799992
vn -0.581228 -0.148952 -0.799992
vn -0.581228 -0.148952 -0.799992
vn -0.940447 -0.148952 -0.305570
vn -0.940447 -0.148952 -0.305570
vn -0.940447 -0.148952 -0.305570
vn -0.940447 -0.148952 -0.305570
vn -0.940447 -0.148952 0.305570
vn -0.940447 -0.148952 0.305570
vn -0.940447 -0.148952 0.305570
vn -0.940447 -0.148952 0.305570
vn -0.581228 -0.148952 0.799992
vn -0.581228 -0.148952 0.799992
vn -0.581228 -0.148952 0.799992
vn -0.581228 -0.148952 0.799992
vn 0.000000 -0.148952 0.988844
vn 0.000000 -0.148952 0.988844
vn 0.000000 -0.148952 0.988844
vn 0.000000 -0.148952 0.988844
vn 0.581228 -0.148952 0.799992
vn 0.581228 -0.148952 0.799992
vn 0.581228 -0.148952 0.799992
vn 0.581228 -0.148952 0.799992
vn 0.940447 -0.148952 0.305570
vn 0.940447 -0.148952 0.305570
vn 0.940447 -0.148952 0.305570
vn 0.940447 -0.148952 0.305570
vn 0.940447 -0.148952 -0.305570
vn 0.940447 -0.148952 -0.305570
vn 0.940447 -0.148952 -0.305570
vn 0.940447 -0.148952 -0.305570
vn 0.019484 0.999448 -0.026910
vn 0.019484 0.999448 -0.026910
vn 0.019484 0.999448 -0.026910
vn 0.019484 0.999448 -0.026910
vn -0.000000 0.999480 -0.032248
vn -0.000000 0.999480 -0.032248
vn -0.000000 0.999480 -0.032248
vn -0.000000 0.999480 -0.032248
vn -0.019484 0.999448 -0.026910
vn -0.019484 0.999448 -0.026910
vn -0.019484 0.999448 -0.026910
vn -0.019484 0.999448 -0.026910
vn -0.033218 0.999389 -0.010831
vn -0.033218 0.999389 -0.010831
vn -0.033218 0.999389 -0.010831
vn -0.033218 0.999389 -0.010831
vn -0.033218 0.999389 0.010831
vn -0.033218 0.999389 0.010831
vn -0.033218 0.999390 0.010831
vn -0.033218 0.999389 0.010831
vn -0.019484 0.999448 0.026910
vn -0.019484 0.999448 0.026910
vn -0.019484 0.999448 0.026910
vn -0.019484 0.999448 0.026910
vn 0.000000 0.999480 0.032248
vn 0.000000 0.999480 0.032248
vn 0.000000 0.999480 0.032248
vn 0.000000 0.999480 0.032248
vn 0.019484 0.999448 0.026910
vn 0.019484 0.999448 0.026910
vn 0.019484 0.999448 0.026910
vn 0.019484 0.999448 0.026910
vn 0.033218 0.999390 0.010831
vn 0.033218 0.999389 0.010831
vn 0.033218 0.999390 0.010831
vn 0.033218 0.999390 0.010831
vn 0.033218 0.999390 -0.010831
vn 0.033218 0.999390 -0.010831
vn 0.033218 0.999390 -0.010831
vn 0.033218 0.999389 -0.010831
vn -0.532813 0.344642 0.772873
vn -0.532813 0.344642 0.772873
vn -0.532813 0.344642 0.772873
vn -0.532813 0.344642 0.772873
vn 0.000000 0.383887 0.923380
vn 0.000000 0.383887 0.923380
vn 0.000000 0.383887 0.923380
vn 0.000000 0.383887 0.923380
vn 0.532813 0.344642 0.772873
vn 0.532813 0.344642 0.772873
vn 0.532813 0.344642 0.772873
vn 0.532813 0.344642 0.772873
vn 0.909855 0.274034 0.311560
vn 0.909855 0.274034 0.311560
vn 0.909855 0.274034 0.311560
vn 0.909855 0.274034 0.311560
vn 0.909855 0.274034 -0.311561
vn 0.909855 0.274034 -0.311561
vn 0.909855 0.274034 -0.311561
vn 0.909855 0.274034 -0.311560
vn 0.532813 0.344642 -0.772873
vn 0.532813 0.344642 -0.772873
vn 0.532813 0.344642 -0.772873
vn 0.532813 0.344642 -0.772873
vn 0.000000 0.383887 -0.923380
vn 0.000000 0.383887 -0.923380
vn 0.000000 0.383887 -0.923380
vn 0.000000 0.383887 -0.923380
vn -0.532813 0.344642 -0.772873
vn -0.532813 0.344642 -0.772873
vn -0.532813 0.344641 -0.772873
vn -0.532813 0.344642 -0.772873
vn -0.909855 0.274034 -0.311560
vn -0.909855 0.274034 -0.311560
vn -0.909855 0.274034 -0.311560
vn -0.909855 0.274034 -0.311560
vn -0.909855 0.274034 0.311560
vn -0.909855 0.274034 0.311560
vn -0.909855 0.274034 0.311560
vn -0.909855 0.274034 0.311560
vn -0.469103 0.511921 0.719638
vn -0.469103 0.511921 0.719638
vn -0.469103 0.511921 0.719638
vn -0.469103 0.511921 0.719638
vn 0.000000 0.498797 0.866719
vn 0.000000 0.498797 0.866719
vn 0.000000 0.498798 0.866719
vn 0.000000 0.498798 0.866719
vn 0.469103 0.511921 0.719638
vn 0.469103 0.511921 0.719638
vn 0.469103 0.511921 0.719638
vn 0.469103 0.511921 0.719638
vn 0.794045 0.535539 0.287559
vn 0.794045 0.535539 0.287559
vn 0.794045 0.535539 0.287559
vn 0.794045 0.535539 0.287559
vn 0.794045 0.535539 -0.287560
vn 0.794045 0.535539 -0.287560
vn 0.794045 0.535539 -0.287560
vn 0.794045 0.535539 -0.287560
vn 0.469103 0.511921 -0.719638
vn 0.469103 0.511921 -0.719638
vn 0.469103 0.511921 -0.719639
vn 0.469103 0.511921 -0.719638
vn 0.000000 0.498797 -0.866719
vn 0.000000 0.498798 -0.866719
vn 0.000000 0.498798 -0.866719
vn 0.000000 0.498798 -0.866719
vn -0.469103 0.511921 -0.719638
vn -0.469103 0.511921 -0.719638
vn -0.469103 0.511921 -0.719638
vn -0.469103 0.511921 -0.719638
vn -0.794045 0.535540 -0.287560
vn -0.794045 0.535540 -0.287560
vn -0.794045 0.535540 -0.287560
vn -0.794045 0.535540 -0.287560
vn -0.794045 0.535539 0.287559
vn -0.794045 0.535539 0.287560
vn -0.794045 0.535539 0.287559
vn -0.794045 0.535539 0.287559
vn -0.231431 0.905755 0.355032
vn -0.231431 0.905755 0.355032
vn -0.231431 0.905755 0.355032
vn -0.231431 0.905755 0.355032
vn 0.000000 0.899935 0.436025
vn 0.000000 0.899935 0.436025
vn 0.000000 0.899935 0.436025
vn 0.000000 0.899935 0.436025
vn 0.231431 0.905755 0.355033
vn 0.231431 0.905755 0.355033
vn 0.231431 0.905755 0.355033
vn 0.231431 0.905755 0.355033
vn 0.378458 0.915415 0.137057
vn 0.378458 0.915415 0.137057
vn 0.378458 0.915415 0.137057
vn 0.378458 0.915415 0.137057
vn 0.378458 0.915415 -0.137057
vn 0.378458 0.915415 -0.137057
vn 0.378458 0.915415 -0.137057
vn 0.378458 0.915415 -0.137057
vn 0.231431 0.905755 -0.355033
vn 0.231431 0.905755 -0.355033
vn 0.231431 0.905755 -0.355033
vn 0.231431 0.905755 -0.355033
vn 0.000000 0.899935 -0.436025
vn 0.000000 0.899935 -0.436025
vn 0.000000 0.899935 -0.436025
vn 0.000000 0.899935 -0.436025
vn -0.231431 0.905755 -0.355032
vn -0.231431 0.905755 -0.355032
vn -0.231431 0.905755 -0.355032
vn -0.231431 0.905755 -0.355033
vn -0.378458 0.915415 -0.137057
vn -0.378458 0.915415 -0.137057
vn -0.378458 0.915415 -0.137057
vn -0.378458 0.915415 -0.137057
vn -0.378458 0.915415 0.137057
vn -0.378458 0.915415 0.137057
vn -0.378458 0.915415 0.137057
vn -0.378458 0.915415 0.137057
vn 0.037042 -0.998012 -0.050984
vn 0.037042 -0.998012 -0.050984
vn 0.037042 -0.998012 -0.050984
vn -0.000000 -0.998012 -0.063020
vn -0.000000 -0.998012 -0.063020
vn -0.000000 -0.998012 -0.063020
vn -0.037042 -0.998012 -0.050984
vn -0.037042 -0.998012 -0.050984
vn -0.037042 -0.998012 -0.050984
vn -0.059935 -0.998012 -0.019474
vn -0.059935 -0.998012 -0.019474
vn -0.059935 -0.998012 -0.019474
vn -0.059935 -0.998012 0.019474
vn -0.059935 -0.998012 0.019474
vn -0.059935 -0.998012 0.019474
vn -0.037042 -0.998012 0.050984
vn -0.037042 -0.998012 0.050984
vn -0.037042 -0.998012 0.050984
vn 0.000000 -0.998012 0.063020
vn 0.000000 -0.998012 0.063020
vn 0.000000 -0.998012 0.063020
vn 0.037042 -0.998012 0.050984
vn 0.037042 -0.998012 0.050984
vn 0.037042 -0.998012 0.050984
vn 0.059935 -0.998012 0.019474
vn 0.059935 -0.998012 0.019474
vn 0.059935 -0.998012 0.019474
vn 0.059935 -0.998012 -0.019474
vn 0.059935 -0.998012 -0.019474
vn 0.059935 -0.998012 -0.019474
vn -0.000000 1.000000 0.000000
vn -0.000000 1.000000 0.000000
vn -0.000000 1.000000 0.000000
vn 0.000000 1.000000 0.000001
vn 0.000000 1.000000 0.000001
vn 0.000000 1.000000 0.000001
vn 0.000000 1.000000 0.000000
vn 0.000000 1.000000 0.000000
vn 0.000000 1.000000 0.000000
vn 0.000000 1.000000 0.000000
vn 0.000000 1.000000 0.000000
vn 0.000000 1.000000 0.000000
vn 0.000000 1.000000 0.000000
vn 0.000000 1.000000 0.000000
vn 0.000000 1.000000 0.000000
vn 0.000000 1.000000 0.000000
vn 0.000000 1.000000 0.000000
vn 0.000000 1.000000 0.000000
vn 0.000000 1.000000 -0.000001
vn 0.000000 1.000000 -0.000001
vn 0.000000 1.000000 -0.000001
vn -0.000000 1.000000 0.000000
vn -0.000000 1.000000 0.000000
vn -0.000000 1.000000 0.000000
vn -0.000000 1.000000 0.000000
vn -0.000000 1.000000 0.000000
vn -0.000000 1.000000 0.000000
vn -0.000000 1.000000 0.000000
vn -0.000000 1.000000 0.000000
vn -0.000000 1.000000 0.000000
s off
g pSphere1
usemtl lambert2SG
f 1/63/1 2/64/2 12/135/3 11/127/4
f 2/64/5 3/67/6 13/134/7 12/135/8
f 3/67/9 4/71/10 14/133/11 13/134/12
f 4/71/13 5/73/14 15/132/15 14/133/16
f 5/73/17 6/76/18 16/131/19 15/132/20
f 6/76/21 7/77/22 17/130/23 16/131/24
f 7/77/25 8/74/26 18/129/27 17/130/28
f 8/74/29 9/72/30 19/128/31 18/129/32
f 9/72/33 10/69/34 20/70/35 19/128/36
f 10/69/37 1/63/38 11/127/39 20/70/40
f 11/31/41 12/65/42 22/32/43 21/25/44
f 12/65/45 13/68/46 23/11/47 22/32/48
f 13/68/49 14/5/50 24/1/51 23/11/52
f 14/5/53 15/6/54 25/2/55 24/1/56
f 15/6/57 16/13/58 26/7/59 25/2/60
f 16/13/61 17/78/62 27/14/63 26/7/64
f 17/78/65 18/75/66 28/29/67 27/14/68
f 18/75/69 19/139/70 29/138/71 28/29/72
f 19/23/73 20/24/74 30/20/75 29/19/76
f 20/24/77 11/31/78 21/25/79 30/20/80
f 21/25/81 22/32/82 32/33/83 31/26/84
f 22/32/85 23/11/86 33/12/87 32/33/88
f 23/11/89 24/1/90 34/4/91 33/12/92
f 24/1/93 25/2/94 35/3/95 34/4/96
f 25/2/97 26/7/98 36/8/99 35/3/100
f 26/7/101 27/14/102 37/15/103 36/8/104
f 27/14/105 28/29/106 38/30/107 37/15/108
f 28/29/109 29/138/110 39/136/111 38/30/112
f 29/19/113 30/20/114 40/21/115 39/22/116
f 30/20/117 21/25/118 31/26/119 40/21/120
f 31/26/121 32/33/122 42/36/123 41/34/124
f 32/33/125 33/12/126 43/17/127 42/36/128
f 33/12/129 34/4/130 44/10/131 43/17/132
f 34/4/133 35/3/134 45/9/135 44/10/136
f 35/3/137 36/8/138 46/16/139 45/9/140
f 36/8/141 37/15/142 47/18/143 46/16/144
f 37/15/145 38/30/146 48/35/147 47/18/148
f 38/30/149 39/136/150 49/137/151 48/35/152
f 39/22/153 40/21/154 50/27/155 49/28/156
f 40/21/157 31/26/158 41/34/159 50/27/160
f 41/79/161 42/80/162 52/81/163 51/82/164
f 42/80/165 43/83/166 53/84/167 52/81/168
f 43/83/169 44/87/170 54/88/171 53/84/172
f 44/87/173 45/91/174 55/92/175 54/88/176
f 45/91/177 46/95/178 56/96/179 55/92/180
f 46/95/181 47/97/182 57/98/183 56/96/184
f 47/97/185 48/93/186 58/94/187 57/98/188
f 48/93/189 49/89/190 59/90/191 58/94/192
f 49/89/193 50/85/194 60/86/195 59/90/196
f 50/85/197 41/79/198 51/82/199 60/86/200
f 51/54/201 52/60/202 62/61/203 61/55/204
f 52/60/205 53/45/206 63/46/207 62/61/208
f 53/45/209 54/37/210 64/40/211 63/46/212
f 54/37/213 55/38/214 65/39/215 64/40/216
f 55/38/217 56/41/218 66/42/219 65/39/220
f 56/41/221 57/47/222 67/48/223 66/42/224
f 57/122/225 58/58/226 68/59/227 67/123/228
f 58/58/229 59/50/230 69/53/231 68/59/232
f 59/50/233 60/51/234 70/52/235 69/53/236
f 60/51/237 51/54/238 61/55/239 70/52/240
f 61/55/241 62/61/242 72/121/243 71/62/244
f 62/61/245 63/46/246 73/120/247 72/121/248
f 63/46/249 64/40/250 74/44/251 73/120/252
f 64/40/253 65/39/254 75/43/255 74/44/256
f 65/39/257 66/42/258 76/49/259 75/43/260
f 66/42/261 67/48/262 77/126/263 76/49/264
f 67/123/265 68/59/266 78/124/267 77/125/268
f 68/59/269 69/53/270 79/57/271 78/124/272
f 69/53/273 70/52/274 80/56/275 79/57/276
f 70/52/277 61/55/278 71/62/279 80/56/280
f 71/99/281 72/100/282 82/101/283 81/102/284
f 72/100/285 73/103/286 83/104/287 82/101/288
f 73/103/289 74/108/290 84/109/291 83/104/292
f 74/108/293 75/112/294 85/113/295 84/109/296
f 75/112/297 76/116/298 86/117/299 85/113/300
f 76/116/301 77/118/302 87/119/303 86/117/304
f 77/118/305 78/114/306 88/115/307 87/119/308
f 78/114/309 79/110/310 89/111/311 88/115/312
f 79/110/313 80/106/314 90/107/315 89/111/316
f 80/106/317 71/99/318 81/102/319 90/107/320
f 2/64/321 1/63/322 91/66/323
f 3/67/324 2/64/325 91/66/326
f 4/71/327 3/67/328 91/66/329
f 5/73/330 4/71/331 91/66/332
f 6/76/333 5/73/334 91/66/335
f 7/77/336 6/76/337 91/66/338
f 8/74/339 7/77/340 91/66/341
f 9/72/342 8/74/343 91/66/344
f 10/69/345 9/72/346 91/66/347
f 1/63/348 10/69/349 91/66/350
f 81/102/351 82/101/352 92/105/353
f 82/101/354 83/104/355 92/105/356
f 83/104/357 84/109/358 92/105/359
f 84/109/360 85/113/361 92/105/362
f 85/113/363 86/117/364 92/105/365
f 86/117/366 87/119/367 92/105/368
f 87/119/369 88/115/370 92/105/371
f 88/115/372 89/111/373 92/105/374
f 89/111/375 90/107/376 92/105/377
f 90/107/378 81/102/379 92/105/380
