# This file uses centimeters as units for non-parametric coordinates.

mtllib milk.mtl
g default
v -1.730723 0.000000 1.730723
v 0.000000 0.000000 1.730723
v 1.730723 0.000000 1.730723
v -1.730723 3.488969 1.730723
v 0.000000 3.488969 1.730723
v 1.730723 3.488969 1.730723
v -1.730723 6.977939 1.730723
v 0.000000 6.977939 1.730723
v 1.730723 6.977939 1.730723
v -1.121920 8.469530 0.000000
v 1.121920 8.469530 0.000000
v -1.730723 6.977939 -1.730723
v 0.000000 6.977939 -1.730723
v 1.730723 6.977939 -1.730723
v -1.730723 3.488969 -1.730723
v 0.000000 3.488969 -1.730723
v 1.730723 3.488969 -1.730723
v -1.730723 0.000000 -1.730723
v 0.000000 0.000000 -1.730723
v 1.730723 0.000000 -1.730723
v -1.730723 0.000000 0.000000
v 0.000000 0.000000 0.000000
v 1.730723 0.000000 0.000000
v 1.730723 3.488969 0.000000
v -1.730723 3.488969 0.000000
v 1.730723 6.977940 0.000000
v -1.730723 6.977940 0.000000
v -1.424531 7.684773 -0.975955
v -1.424532 7.679485 0.981602
v 1.424531 7.772043 0.882766
v 1.424531 7.800260 -0.852636
v -1.165054 8.467713 0.139919
v 0.000000 8.471709 0.135651
v 1.165054 8.480906 0.125830
v -1.182108 8.459345 -0.183495
v 0.000000 8.494448 -0.146011
v 1.182108 8.482314 -0.158967
v 0.000000 8.948700 0.000000
v 0.000000 8.973620 -0.146011
v -1.182108 8.938516 -0.183495
v -1.121920 8.948700 0.000000
v -1.165054 8.946885 0.139919
v 0.000000 8.950881 0.135651
v 1.121920 8.948700 0.000000
v 1.182108 8.961485 -0.158967
v 1.165054 8.960077 0.125830
v 1.468486 7.667336 -0.709698
v 1.243549 8.296586 -0.069391
v 1.191369 8.281759 0.001555
v 1.472567 7.639052 0.741291
v 1.232084 8.295681 0.040091
v 1.769102 6.997123 1.249139
v 1.768938 6.997060 -0.000000
v 1.768808 6.997012 -1.247645
v -1.470746 7.552762 -0.832639
v -1.184110 8.277697 0.004171
v -1.235557 8.279402 -0.087234
v -1.472982 7.546881 0.839668
v -1.223077 8.285478 0.049017
v -1.760032 6.993438 -1.254752
v -1.760041 6.993441 -0.000000
v -1.760050 6.993446 1.255149
v 0.858574 7.572477 -0.004493
v 0.902175 7.456449 -0.730594
v 1.147663 8.336002 -0.111596
v 1.096644 8.316845 -0.005852
v 0.908186 7.421838 0.753717
v 1.138520 8.326437 0.067481
v 1.652424 6.946146 1.246602
v 1.651490 6.948079 -0.001062
v 1.650591 6.950028 -1.247232
v -0.907495 7.335559 -0.848525
v -0.859474 7.465809 -0.001773
v -1.081752 8.333819 0.001073
v -1.132266 8.338855 -0.122130
v -0.910718 7.326228 0.852403
v -1.121652 8.338270 0.077716
v -1.655341 6.913784 -1.251629
v -1.655403 6.913669 -0.000053
v -1.655466 6.913555 1.251920
vt 1.411741 -0.000000
vt 1.659770 -0.000000
vt 1.659770 0.500000
vt 1.411741 0.500000
vt 1.163714 -0.000000
vt 1.163714 0.500000
vt -0.223014 1.208243
vt -0.471042 1.208243
vt -0.471042 1.708243
vt -0.223014 1.708243
vt -0.719070 1.208243
vt -0.719070 1.708243
vt 1.411741 1.000000
vt 1.163714 1.000000
vt 1.659770 1.000000
vt -0.471042 2.208243
vt -0.223014 2.208243
vt -0.719070 2.208243
vt 0.559397 0.712188
vt 0.554817 0.640747
vt 0.601410 0.704495
vt 0.599798 0.711520
vt 0.556618 0.783059
vt 0.602035 0.722398
vt -0.035872 0.805651
vt -0.034645 0.790576
vt -0.015995 0.790347
vt -0.016568 0.806030
vt -0.045026 0.798901
vt -0.043387 0.790518
vt -0.035693 0.779176
vt -0.016453 0.778462
vt -0.064925 0.872527
vt -0.072542 0.861860
vt -0.044790 0.785860
vt -0.094787 0.936703
vt -0.100398 0.899049
vt -0.068470 0.709587
vt -0.075746 0.720447
vt -0.100948 0.647219
vt -0.104936 0.685048
vt 0.060314 0.790989
vt 0.059479 0.777738
vt 0.078628 0.776857
vt 0.078925 0.790429
vt 0.051585 0.791130
vt 0.049891 0.783995
vt 0.060215 0.801365
vt 0.079397 0.801053
vt 0.050310 0.795648
vt 0.032212 0.719398
vt 0.024764 0.730066
vt 0.033126 0.865452
vt 0.025288 0.855079
vt -0.000566 0.645501
vt -0.006135 0.683681
vt 0.002382 0.937489
vt -0.003980 0.899551
vt -1.065280 0.531075
vt -1.303517 0.512518
vt -1.265331 0.159723
vt -0.916587 0.198372
vt -0.996652 0.359075
vt -1.540777 0.485095
vt -1.573355 0.324346
vt -1.614223 0.122842
vt 0.429797 0.318361
vt 0.586036 0.318361
vt 0.586036 0.474600
vt 0.429797 0.474600
vt 0.742276 0.318361
vt 0.742276 0.474600
vt 0.586036 0.630840
vt 0.429797 0.630840
vt 0.742276 0.630840
vt 0.117406 0.858305
vt 0.118168 0.748023
vt 0.192336 0.748620
vt 0.186061 0.823274
vt 0.107546 0.858514
vt 0.108311 0.747961
vt 0.118689 0.637705
vt 0.186561 0.673224
vt 0.108837 0.637372
vt 0.443270 0.638114
vt 0.442371 0.747801
vt 0.367528 0.747683
vt 0.374334 0.680934
vt 0.453766 0.637969
vt 0.452915 0.747777
vt 0.441722 0.857359
vt 0.372561 0.811608
vt 0.452313 0.857454
vt -1.727498 1.217526
vt -1.691126 0.927681
vt -1.396520 0.964588
vt -1.421841 1.159652
vt -1.582718 1.183594
vt -1.654877 0.637820
vt -1.504688 0.708701
vt -1.370338 0.769630
vt -1.334005 0.972591
vt -1.309464 0.975683
vt -1.328245 1.174469
vt -1.357704 1.160486
vt -1.382049 1.164752
vt -1.356724 0.969729
vt -1.310366 0.784689
vt -1.282453 0.777956
vt -1.330552 0.774811
vt 0.089317 0.944990
vt 0.089444 0.791070
vt 0.092946 0.791072
vt 0.092869 0.902163
vt 0.089572 0.637149
vt 0.093026 0.680114
vt 0.101995 0.637410
vt 0.101885 0.791072
vt 0.099194 0.791070
vt 0.099274 0.679667
vt 0.101775 0.944734
vt 0.099113 0.902508
vt 0.328001 0.740524
vt 0.324561 0.747635
vt 0.317094 0.746924
vt 0.319919 0.738953
vt 0.327085 0.751914
vt 0.319485 0.752532
vt 0.283054 0.747436
vt 0.285773 0.687645
vt 0.331447 0.682296
vt 0.331360 0.814941
vt 0.285947 0.809492
vt 0.342267 0.628239
vt 0.332877 0.629582
vt 0.342627 0.866365
vt 0.333320 0.865036
vt 0.253004 0.748275
vt 0.248978 0.740737
vt 0.257734 0.737909
vt 0.261646 0.748029
vt 0.221398 0.676262
vt 0.266607 0.664403
vt 0.250002 0.752084
vt 0.258554 0.754356
vt 0.192795 0.638434
vt 0.201437 0.635521
vt 0.222309 0.820554
vt 0.267817 0.830945
vt 0.195096 0.858666
vt 0.203815 0.861324
vt 1.111826 1.174887
vt 1.359854 1.174887
vt 1.359854 1.674887
vt 1.111826 1.674887
vt 1.607882 1.174887
vt 1.607882 1.674887
vt 1.359854 2.174887
vt 1.111826 2.174887
vt 1.607882 2.174887
vt -1.069795 0.579038
vt -1.308375 0.560352
vt -1.545994 0.532986
vt -0.074179 2.234187
vt 0.173849 2.234187
vt 0.173849 1.734187
vt -0.074179 1.734187
vt 0.421876 2.234187
vt 0.421876 1.734187
vt 0.173849 1.234187
vt -0.074179 1.234187
vt 0.421876 1.234187
vn 0.000000 0.000000 1.000000
vn 0.000000 0.000000 1.000000
vn 0.000000 0.000000 1.000000
vn 0.000000 0.000000 1.000000
vn 0.000000 0.000000 1.000000
vn 0.000000 0.000000 1.000000
vn 0.000000 0.000000 1.000000
vn 0.000000 0.000000 1.000000
vn 0.000000 0.000000 1.000000
vn -0.003746 0.723072 -0.690763
vn 0.000412 0.723154 -0.690687
vn 0.000382 0.723153 -0.690687
vn -0.003746 0.723072 -0.690763
vn -0.003746 0.723072 -0.690763
vn 0.004418 0.723222 -0.690602
vn 0.004418 0.723222 -0.690602
vn 0.004418 0.723222 -0.690602
vn 0.000000 0.000000 -1.000000
vn 0.000000 0.000000 -1.000000
vn 0.000000 0.000000 -1.000000
vn 0.000000 0.000000 -1.000000
vn 0.000000 0.000000 -1.000000
vn 0.000000 0.000000 -1.000000
vn 0.000000 0.000000 -1.000000
vn 0.000000 0.000000 -1.000000
vn 0.000000 0.000000 -1.000000
vn 0.000000 -1.000000 0.000000
vn 0.000000 -1.000000 0.000000
vn 0.000000 -1.000000 0.000000
vn 0.000000 -1.000000 0.000000
vn 0.000000 -1.000000 0.000000
vn 0.000000 -1.000000 0.000000
vn 0.000000 -1.000000 0.000000
vn 0.000000 -1.000000 0.000000
vn 0.000000 -1.000000 0.000000
vn 1.000000 0.000000 0.000000
vn 1.000000 0.000000 0.000000
vn 1.000000 0.000000 0.000000
vn 1.000000 0.000000 0.000000
vn 1.000000 0.000000 0.000000
vn 1.000000 0.000000 -0.000000
vn 0.812941 0.582337 0.003290
vn 0.661554 0.749680 -0.018061
vn 0.931916 -0.332544 0.144729
vn 0.942079 -0.335331 -0.006359
vn 0.642340 0.765761 0.031766
vn 0.930467 -0.330361 -0.158408
vn -1.000000 0.000000 0.000000
vn -1.000000 0.000000 0.000000
vn -1.000000 0.000000 0.000000
vn -1.000000 0.000000 0.000000
vn -1.000000 0.000000 0.000000
vn -1.000000 0.000000 0.000000
vn -0.627637 0.778203 -0.021725
vn -0.816560 0.577255 0.002505
vn -0.960293 -0.278991 0.000893
vn -0.951117 -0.278902 0.132626
vn -0.614584 0.788404 0.026569
vn -0.952454 -0.274094 -0.133053
vn 0.999956 -0.009384 -0.000000
vn 0.999977 0.006794 0.000820
vn 0.999977 0.006752 -0.000779
vn -0.999974 -0.007220 -0.000000
vn -0.999978 0.006649 -0.000398
vn -0.999978 0.006658 0.000428
vn -0.525531 0.849801 -0.040692
vn -0.524244 0.851567 0.001581
vn -0.522022 0.851808 0.043782
vn 0.571029 0.819529 0.047946
vn 0.577861 0.816105 0.007031
vn 0.583743 0.811215 -0.034283
vn 0.000000 0.729905 0.683549
vn 0.000000 0.729905 0.683549
vn 0.000000 0.729905 0.683549
vn 0.000000 0.729905 0.683549
vn 0.000000 0.729905 0.683549
vn 0.000000 0.729905 0.683549
vn 0.000000 0.729905 0.683549
vn 0.000000 0.729905 0.683549
vn -0.004303 0.999405 0.034233
vn -0.004337 0.999406 0.034175
vn -0.009529 0.999635 0.025266
vn -0.009529 0.999635 0.025266
vn -0.009529 0.999635 0.025266
vn -0.004324 0.999406 0.034197
vn 0.001269 0.999040 0.043787
vn 0.001269 0.999040 0.043787
vn 0.001269 0.999040 0.043787
vn 0.031694 0.000000 -0.999498
vn 0.031694 0.000000 -0.999498
vn 0.031694 0.000000 -0.999498
vn 0.031694 0.000000 -0.999498
vn -0.966924 0.235439 0.098112
vn -0.943247 0.081022 0.322058
vn -0.950189 0.000000 0.311673
vn -0.950189 0.000000 0.311673
vn -0.945505 0.073427 -0.317220
vn -0.962696 0.259866 -0.075399
vn -0.955620 0.000000 -0.294601
vn -0.955620 0.000000 -0.294601
vn 0.003663 0.000000 0.999993
vn 0.003663 0.000000 0.999993
vn 0.003663 0.000000 0.999993
vn 0.003663 0.000000 0.999993
vn 0.920841 0.089090 0.379625
vn 0.959880 0.246818 0.133081
vn 0.935211 0.000000 0.354092
vn 0.935211 0.000000 0.354092
vn -0.010960 0.000000 -0.999940
vn -0.010960 0.000000 -0.999940
vn -0.010960 0.000000 -0.999940
vn -0.010960 0.000000 -0.999940
vn 0.008429 0.000000 0.999965
vn 0.008429 0.000000 0.999965
vn 0.008429 0.000000 0.999965
vn 0.008429 0.000000 0.999965
vn 0.956506 0.275825 -0.094956
vn 0.929072 0.084848 -0.360035
vn 0.945963 0.000000 -0.324275
vn 0.945963 0.000000 -0.324275
vn 0.919915 0.390942 -0.030345
vn 0.937946 0.337696 0.078860
vn 0.930692 0.365551 -0.013591
vn 0.807615 0.390779 0.441644
vn 0.935360 0.350437 -0.047902
vn 0.792372 0.394875 -0.464995
vn 0.914441 0.403230 0.034677
vn 0.924906 0.379651 0.020359
vn 0.447447 -0.894311 -0.000005
vn 0.985187 0.165269 0.045749
vn 0.985487 0.164359 -0.042433
vn -0.946957 0.316322 0.056684
vn -0.867523 0.361990 0.341128
vn -0.914662 0.403812 -0.018168
vn -0.931766 0.362895 -0.010947
vn -0.912368 0.408890 0.019832
vn -0.944614 0.325869 -0.038892
vn -0.928241 0.371766 0.012577
vn -0.847351 0.362323 -0.388225
vn -0.467439 -0.884025 -0.000000
vn -0.976588 0.213707 -0.024583
vn -0.976353 0.214542 0.026600
vn 0.147402 -0.593275 0.791390
vn 0.092620 -0.638765 0.763807
vn 0.092620 -0.638765 0.763807
vn 0.131657 -0.606778 0.783892
vn -0.267741 -0.905051 -0.330450
vn -0.286159 -0.957238 -0.042523
vn -0.284409 -0.953306 -0.101583
vn -0.267741 -0.905051 -0.330450
vn -0.268251 -0.883602 0.383782
vn -0.268251 -0.883602 0.383782
vn 0.141408 -0.657089 -0.740431
vn 0.175714 -0.594437 -0.784710
vn 0.164064 -0.616441 -0.770119
vn 0.141408 -0.657089 -0.740431
vn -0.392662 0.919683 0.000862
vn -0.384964 0.922931 0.000862
vn -0.384874 0.922969 0.000862
vn -0.392662 0.919683 0.000862
vn 0.201741 -0.542385 -0.815548
vn 0.201741 -0.542385 -0.815548
vn -0.377139 0.926156 0.000862
vn -0.377139 0.926156 0.000862
vn 0.186200 -0.558485 0.808347
vn 0.186200 -0.558485 0.808347
vn 0.447388 -0.894287 -0.009719
vn 0.442258 -0.864931 -0.237283
vn 0.442258 -0.864931 -0.237283
vn 0.448097 -0.892997 -0.042007
vn -0.094803 -0.644745 0.758496
vn -0.151307 -0.571206 0.806740
vn -0.127752 -0.602886 0.787533
vn -0.094803 -0.644745 0.758496
vn -0.165983 -0.578497 -0.798618
vn -0.120693 -0.660186 -0.741342
vn -0.120693 -0.660186 -0.741342
vn -0.146163 -0.615550 -0.774425
vn 0.407164 -0.843930 0.349285
vn 0.407164 -0.843930 0.349285
vn 0.605892 0.795547 0.000052
vn 0.606275 0.795255 0.000052
vn 0.606274 0.795256 0.000052
vn 0.605892 0.795547 0.000052
vn -0.203843 -0.494971 0.844661
vn -0.203843 -0.494971 0.844661
vn 0.606657 0.794964 0.000052
vn 0.606657 0.794964 0.000052
vn -0.208997 -0.490481 -0.846019
vn -0.208997 -0.490481 -0.846019
s 1
g pCube1 milk
usemtl lambert3SG
f 1/152/1 2/153/2 5/154/3 4/155/4
f 2/153/2 3/156/5 6/157/6 5/154/3
f 4/155/4 5/154/3 8/158/7 7/159/8
f 5/154/3 6/157/6 9/160/9 8/158/7
s 2
f 35/59/10 36/60/11 13/61/12 12/62/13 28/63/14
f 36/60/11 37/64/15 31/65/16 14/66/17 13/61/12
s 3
f 12/164/18 13/165/19 16/166/20 15/167/21
f 13/165/19 14/168/22 17/169/23 16/166/20
f 15/167/21 16/166/20 19/170/24 18/171/25
f 16/166/20 17/169/23 20/172/26 19/170/24
s 4
f 18/67/27 19/68/28 22/69/29 21/70/30
f 19/68/28 20/71/31 23/72/32 22/69/29
f 21/70/30 22/69/29 2/73/33 1/74/34
f 22/69/29 23/72/32 3/75/35 2/73/33
s 5
f 23/1/36 20/2/37 17/3/38 24/4/39
f 3/5/40 23/1/36 24/4/39 6/6/41
s 6
f 63/129/42 64/130/43 65/126/44 66/125/45
f 67/133/46 63/129/42 66/125/45 68/128/47
s 7
f 18/7/48 21/8/49 25/9/50 15/10/51
f 21/8/49 1/11/52 4/12/53 25/9/50
s 8
f 72/23/54 73/19/55 74/22/56 75/24/57
f 73/19/55 76/20/58 77/21/59 74/22/56
s 5
f 6/6/41 24/4/39 26/13/60 9/14/61
f 24/4/39 17/3/38 14/15/62 26/13/60
s 7
f 15/10/51 25/9/50 27/16/63 12/17/64
f 25/9/50 4/12/53 7/18/65 27/16/63
s 8
f 78/76/66 79/77/67 73/78/55 72/79/54
f 79/77/67 80/82/68 76/83/58 73/78/55
s 6
f 69/85/69 70/86/70 63/87/42 67/88/46
f 70/86/70 71/91/71 64/92/43 63/87/42
s 9
f 7/94/72 8/95/73 33/96/74 32/97/75 29/98/76
f 8/95/73 9/99/77 30/100/78 34/101/79 33/96/74
s 10
f 38/102/80 39/103/81 40/104/82 41/105/83 42/106/84 43/107/85
f 44/108/86 45/109/87 39/103/81 38/102/80 43/107/85 46/110/88
s off
f 36/60/89 35/59/90 40/161/91 39/162/92
s 7
f 35/25/93 10/26/94 41/27/95 40/28/96
f 10/26/97 32/31/98 42/32/99 41/27/100
s off
f 32/97/101 33/96/102 43/107/103 42/106/104
s 5
f 11/42/105 37/43/106 45/44/107 44/45/108
s off
f 37/64/109 36/60/110 39/162/111 45/163/112
f 33/96/113 34/101/114 46/110/115 43/107/116
s 5
f 34/48/117 11/42/118 44/45/119 46/49/120
f 31/51/121 37/43/106 48/47/122 47/52/123
f 37/43/106 11/42/105 49/46/124 48/47/122
f 11/42/118 34/48/117 51/50/125 49/46/126
f 34/48/117 30/53/127 50/54/128 51/50/125
f 9/111/61 26/112/60 53/113/129 52/114/130
f 30/53/127 9/57/61 52/58/130 50/54/128
f 26/112/60 14/115/62 54/116/131 53/113/129
f 14/55/62 31/51/121 47/52/123 54/56/131
s 7
f 10/26/94 35/25/93 57/29/132 56/30/133
f 35/25/93 28/33/134 55/34/135 57/29/132
f 29/38/136 32/31/98 59/35/137 58/39/138
f 32/31/98 10/26/97 56/30/139 59/35/137
f 12/117/64 27/118/63 61/119/140 60/120/141
f 28/33/134 12/36/64 60/37/141 55/34/135
f 27/118/63 7/121/65 62/122/142 61/119/140
f 7/40/65 29/38/136 58/39/138 62/41/142
s 15
f 47/131/143 48/123/144 65/126/145 64/130/146
s 16
f 48/123/147 49/124/148 66/125/149 65/126/150
f 49/124/148 51/127/151 68/128/152 66/125/149
s 17
f 51/127/153 50/132/154 67/133/155 68/128/156
s 18
f 52/89/157 53/90/158 70/86/159 69/85/160
s 17
f 50/132/154 52/136/161 69/137/162 67/133/155
s 18
f 53/90/158 54/93/163 71/91/164 70/86/159
s 15
f 54/134/165 47/131/143 64/130/146 71/135/166
s 19
f 56/138/167 57/139/168 75/140/169 74/141/170
s 20
f 57/139/171 55/142/172 72/143/173 75/140/174
s 21
f 58/148/175 59/144/176 77/145/177 76/149/178
s 19
f 59/144/179 56/138/167 74/141/170 77/145/180
s 22
f 60/80/181 61/81/182 79/77/183 78/76/184
s 20
f 55/142/172 60/146/185 78/147/186 72/143/173
s 22
f 61/81/182 62/84/187 80/82/188 79/77/183
s 21
f 62/150/189 58/148/175 76/149/178 80/151/190
g default
v 0.315895 7.776591 -0.882112
v 0.260218 7.663082 -0.994234
v 0.121406 7.593437 -1.060838
v -0.047520 7.594258 -1.056486
v -0.182034 7.665231 -0.982838
v -0.230759 7.779247 -0.868026
v -0.175081 7.892755 -0.755904
v -0.036269 7.962400 -0.689300
v 0.132656 7.961579 -0.693653
v 0.267171 7.890606 -0.767301
v 0.307799 8.162845 -1.269124
v 0.252122 8.049336 -1.381246
v 0.113310 7.979691 -1.447850
v -0.055616 7.980512 -1.443497
v -0.190130 8.051485 -1.369849
v -0.238855 8.165501 -1.255038
v -0.183177 8.279009 -1.142916
v -0.044365 8.348654 -1.076312
v 0.124560 8.347833 -1.080664
v 0.259075 8.276860 -1.154312
v 0.581126 8.161517 -1.276167
v 0.469771 7.934500 -1.500410
v 0.192147 7.795210 -1.633619
v -0.145704 7.796852 -1.624914
v -0.414733 7.938797 -1.477618
v -0.512181 8.166829 -1.247994
v -0.400827 8.393846 -1.023751
v -0.123203 8.533135 -0.890542
v 0.214648 8.531494 -0.899248
v 0.483678 8.389548 -1.046544
v 0.589222 7.775263 -0.889156
v 0.477867 7.548246 -1.113399
v 0.200243 7.408956 -1.246608
v -0.137608 7.410598 -1.237902
v -0.406637 7.552543 -1.090606
v -0.504085 7.780575 -0.860983
v -0.392731 8.007592 -0.636740
v -0.115107 8.146881 -0.503531
v 0.222744 8.145240 -0.512236
v 0.491774 8.003294 -0.659532
vt -0.325780 0.374942
vt -0.368308 0.495767
vt -0.563807 0.426956
vt -0.521279 0.306131
vt -0.410836 0.616593
vt -0.606335 0.547781
vt -0.283252 0.254117
vt -0.478751 0.185306
vt -0.453364 0.737417
vt -0.648863 0.668606
vt -0.580948 1.099893
vt -0.623476 1.220718
vt -0.818975 1.151906
vt -0.776447 1.031081
vt -0.666004 1.341543
vt -0.861503 1.272731
vt -0.538420 0.979068
vt -0.733919 0.910256
vt -0.495892 0.858243
vt -0.691391 0.789431
vt 0.365689 0.142059
vt 0.296490 0.119574
vt 0.296490 0.001846
vt 0.434888 0.046814
vt 0.408457 0.200923
vt 0.408457 0.273684
vt 0.365689 0.332548
vt 0.296490 0.355032
vt 0.227290 0.332548
vt 0.184523 0.273684
vt 0.184523 0.200923
vt 0.227290 0.142059
vt 0.158091 0.046814
vt 0.520423 0.164543
vt 0.520423 0.310064
vt 0.434888 0.427793
vt 0.296490 0.472761
vt 0.158091 0.427793
vt 0.072556 0.310064
vt 0.072556 0.164543
vt 0.834939 0.046814
vt 0.973338 0.001846
vt 0.973338 0.119575
vt 0.904139 0.142059
vt 1.111737 0.046814
vt 1.042537 0.142059
vt 0.749404 0.164543
vt 0.861371 0.200923
vt 1.197272 0.164543
vt 1.085305 0.200923
vt 0.749404 0.310064
vt 0.861371 0.273684
vt 1.197272 0.310064
vt 1.085305 0.273684
vt 0.834939 0.427793
vt 0.904139 0.332548
vt 1.111737 0.427793
vt 1.042537 0.332548
vt 0.973338 0.472761
vt 0.973338 0.355032
vt -0.240725 0.133292
vt -0.436224 0.064481
vn -0.014805 0.706336 -0.707722
vn -0.014805 0.706336 -0.707722
vn -0.014805 0.706336 -0.707722
vn -0.014805 0.706336 -0.707722
vn -0.014805 0.706336 -0.707722
vn -0.014805 0.706336 -0.707722
vn -0.014805 0.706336 -0.707722
vn -0.014805 0.706336 -0.707722
vn -0.014805 0.706336 -0.707722
vn -0.014805 0.706336 -0.707722
vn -0.014805 0.706336 -0.707722
vn -0.014805 0.706336 -0.707722
vn -0.014805 0.706336 -0.707722
vn -0.014805 0.706336 -0.707722
vn -0.014805 0.706336 -0.707722
vn -0.014805 0.706336 -0.707722
vn -0.014805 0.706336 -0.707722
vn -0.014805 0.706336 -0.707722
vn -0.014805 0.706336 -0.707722
vn -0.014805 0.706336 -0.707722
vn 0.944045 -0.223360 -0.242672
vn 0.944045 -0.223360 -0.242672
vn 0.944045 -0.223360 -0.242672
vn 0.944045 -0.223360 -0.242672
vn 0.570082 -0.575526 -0.586325
vn 0.570082 -0.575526 -0.586325
vn 0.570082 -0.575526 -0.586325
vn 0.570082 -0.575526 -0.586325
vn -0.021632 -0.707860 -0.706021
vn -0.021632 -0.707860 -0.706021
vn -0.021632 -0.707860 -0.706021
vn -0.021632 -0.707860 -0.706021
vn -0.605084 -0.569816 -0.556042
vn -0.605084 -0.569816 -0.556042
vn -0.605084 -0.569816 -0.556042
vn -0.605084 -0.569816 -0.556042
vn -0.957414 -0.214121 -0.193674
vn -0.957414 -0.214121 -0.193674
vn -0.957414 -0.214121 -0.193674
vn -0.957414 -0.214121 -0.193674
vn -0.944045 0.223360 0.242672
vn -0.944045 0.223360 0.242672
vn -0.944045 0.223360 0.242672
vn -0.944045 0.223360 0.242672
vn -0.570082 0.575526 0.586325
vn -0.570082 0.575526 0.586325
vn -0.570082 0.575526 0.586325
vn -0.570082 0.575526 0.586325
vn 0.021632 0.707860 0.706021
vn 0.021632 0.707860 0.706021
vn 0.021632 0.707860 0.706021
vn 0.021632 0.707860 0.706021
vn 0.605084 0.569816 0.556042
vn 0.605084 0.569816 0.556042
vn 0.605084 0.569816 0.556042
vn 0.605084 0.569816 0.556042
vn 0.957415 0.214121 0.193674
vn 0.957415 0.214121 0.193674
vn 0.957415 0.214121 0.193674
vn 0.957415 0.214121 0.193674
vn 0.014805 -0.706336 0.707722
vn 0.014805 -0.706336 0.707722
vn 0.014805 -0.706336 0.707722
vn 0.014805 -0.706336 0.707722
vn 0.014805 -0.706336 0.707722
vn 0.014805 -0.706336 0.707722
vn 0.014805 -0.706336 0.707722
vn 0.014805 -0.706336 0.707722
vn 0.014805 -0.706336 0.707722
vn 0.014805 -0.706336 0.707722
vn 0.014805 -0.706336 0.707722
vn 0.014805 -0.706336 0.707722
vn 0.014805 -0.706336 0.707722
vn 0.014805 -0.706336 0.707722
vn 0.014805 -0.706336 0.707722
vn 0.014805 -0.706336 0.707722
vn 0.014805 -0.706336 0.707722
vn 0.014805 -0.706336 0.707722
vn 0.014805 -0.706336 0.707722
vn 0.014805 -0.706336 0.707722
vn -0.014805 0.706336 -0.707722
vn -0.014805 0.706336 -0.707722
vn -0.014805 0.706336 -0.707722
vn -0.014805 0.706336 -0.707722
vn -0.014805 0.706336 -0.707722
vn -0.014805 0.706336 -0.707722
vn -0.014805 0.706336 -0.707722
vn -0.014805 0.706336 -0.707722
vn -0.014805 0.706336 -0.707722
vn -0.014805 0.706336 -0.707722
s 1
g milk pPipe1
usemtl lambert3SG
f 92/193/191 91/194/192 101/195/193 102/196/194
f 93/197/195 92/193/191 102/196/194 103/206/196
f 94/198/197 93/197/195 103/206/196 104/207/198
f 95/199/199 94/198/197 104/207/198 105/208/200
f 96/200/201 95/199/199 105/208/200 106/209/202
f 97/201/203 96/200/201 106/209/202 107/210/204
f 98/202/205 97/201/203 107/210/204 108/211/206
f 99/203/207 98/202/205 108/211/206 109/212/208
f 100/204/209 99/203/207 109/212/208 110/205/210
f 91/194/192 100/204/209 110/205/210 101/195/193
s off
f 102/173/211 101/174/212 111/175/213 112/176/214
f 103/179/215 102/173/216 112/176/217 113/180/218
f 104/233/219 103/179/220 113/180/221 114/234/222
f 105/184/223 104/187/224 114/188/225 115/185/226
f 106/183/227 105/184/228 115/185/229 116/186/230
f 107/189/231 106/183/232 116/186/233 117/190/234
f 108/191/235 107/189/236 117/190/237 118/192/238
f 109/181/239 108/191/240 118/192/241 119/182/242
f 110/177/243 109/181/244 119/182/245 120/178/246
f 101/174/247 110/177/248 120/178/249 111/175/250
s 2
f 112/213/251 111/214/252 81/215/253 82/216/254
f 113/219/255 112/213/251 82/216/254 83/220/256
f 114/223/257 113/219/255 83/220/256 84/224/258
f 115/227/259 114/223/257 84/224/258 85/228/260
f 116/231/261 115/227/259 85/228/260 86/232/262
f 117/229/263 116/231/261 86/232/262 87/230/264
f 118/225/265 117/229/263 87/230/264 88/226/266
f 119/221/267 118/225/265 88/226/266 89/222/268
f 120/217/269 119/221/267 89/222/268 90/218/270
f 111/214/252 120/217/269 90/218/270 81/215/253
s off
f 92/193/271 93/197/272 94/198/273 95/199/274 96/200/275 97/201/276 98/202/277 99/203/278 100/204/279 91/194/280
