# This file uses centimeters as units for non-parametric coordinates.

mtllib water.mtl
g default
v 0.628504 0.000000 -0.412919
v 0.240067 0.000000 -0.668117
v -0.240067 0.000000 -0.668117
v -0.628504 0.000000 -0.412919
v -0.776873 0.000000 0.000000
v -0.628504 0.000000 0.412919
v -0.240067 0.000000 0.668117
v 0.240067 0.000000 0.668117
v 0.628504 0.000000 0.412919
v 0.776873 0.000000 0.000000
v 0.628504 2.000000 -0.412919
v 0.240067 2.000000 -0.668117
v -0.240067 2.000000 -0.668117
v -0.628504 2.000000 -0.412919
v -0.776873 2.000000 0.000000
v -0.628504 2.000000 0.412919
v -0.240067 2.000000 0.668117
v 0.240067 2.000000 0.668117
v 0.628504 2.000000 0.412919
v 0.776873 2.000000 0.000000
v 0.000000 0.000000 0.000000
v 0.364164 2.977022 -0.239252
v 0.139098 2.977022 -0.387117
v -0.139099 2.977022 -0.387117
v -0.364165 2.977022 -0.239252
v -0.450132 2.977022 0.000000
v -0.364165 2.977022 0.239252
v -0.139098 2.977022 0.387117
v 0.139098 2.977022 0.387117
v 0.364164 2.977022 0.239251
v 0.450132 2.977022 -0.000000
v 0.604316 3.413950 -0.397028
v 0.230828 3.413950 -0.642405
v -0.230828 3.413950 -0.642405
v -0.604316 3.413950 -0.397028
v -0.746976 3.413950 -0.000000
v -0.604316 3.413950 0.397028
v -0.230828 3.413950 0.642405
v 0.230828 3.413950 0.642405
v 0.604316 3.413950 0.397028
v 0.746976 3.413950 -0.000000
v 0.406062 3.413950 -0.266778
v 0.155102 3.413950 -0.431655
v -0.155102 3.413950 -0.431655
v -0.406062 3.413950 -0.266778
v -0.501920 3.413950 -0.000000
v -0.406062 3.413950 0.266777
v -0.155102 3.413950 0.431655
v 0.155102 3.413950 0.431655
v 0.406062 3.413950 0.266777
v 0.501920 3.413950 -0.000000
v 0.406062 3.075989 -0.266778
v 0.155102 3.075989 -0.431655
v 0.000000 3.075989 -0.000000
v -0.155102 3.075989 -0.431655
v -0.406062 3.075989 -0.266778
v -0.501920 3.075989 -0.000000
v -0.406062 3.075989 0.266777
v -0.155102 3.075989 0.431655
v 0.155102 3.075989 0.431655
v 0.406062 3.075989 0.266777
v 0.501920 3.075989 -0.000000
vt 0.483039 -0.235202
vt 0.556336 -0.147960
vt 0.277198 0.060453
vt 0.206310 -0.012721
vt 0.626757 -0.055559
vt 0.339581 0.137024
vt 0.464737 0.633851
vt 0.398391 0.570482
vt 0.411761 -0.318545
vt 0.125830 -0.082905
vt 0.691562 0.042516
vt 0.394069 0.217174
vt 0.550834 0.665548
vt 0.386046 0.760036
vt 0.275948 0.654877
vt 0.362779 0.485929
vt 0.642432 0.660325
vt 0.528921 0.812635
vt 0.798982 0.254488
vt 0.839890 0.366173
vt 0.510844 0.479904
vt 0.479935 0.388528
vt 0.872261 0.479734
vt 0.533039 0.575347
vt 0.469007 0.248561
vt 0.555785 0.218780
vt 0.749375 0.146207
vt 0.440887 0.300988
vt 0.897280 0.593273
vt 0.545896 0.675296
vt 0.401273 0.310444
vt 0.393131 0.120663
vt 0.537137 0.071243
vt 0.724368 0.619046
vt 0.363796 0.394188
vt 0.280730 0.223356
vt 0.347648 0.926576
vt 0.380244 0.963775
vt 0.348759 0.991363
vt 0.316164 0.954165
vt 0.412839 1.000974
vt 0.381355 1.028562
vt 0.315053 0.889377
vt 0.283568 0.916966
vt 0.445435 1.038173
vt 0.413950 1.065761
vt 0.184671 0.740582
vt 0.217266 0.777781
vt 0.185782 0.805369
vt 0.153186 0.768170
vt 0.249862 0.814979
vt 0.218377 0.842568
vt 0.152076 0.703383
vt 0.120591 0.730971
vt 0.282457 0.852178
vt 0.250973 0.879767
vt 0.409502 0.602261
vt 0.462299 0.529592
vt 0.547726 0.647172
vt 0.547726 0.501835
vt 0.409502 0.692084
vt 0.633153 0.529592
vt 0.462299 0.764752
vt 0.685950 0.602261
vt 0.547726 0.792509
vt 0.685950 0.692084
vt 0.633153 0.764752
vt 0.146327 0.802926
vt 0.180438 0.849875
vt 0.091135 0.878892
vt 0.180438 0.907908
vt 0.091135 0.784993
vt 0.146327 0.954857
vt 0.035943 0.802926
vt 0.091135 0.972791
vt 0.001832 0.849875
vt 0.035942 0.954857
vt 0.001832 0.907908
vt 0.353096 0.528524
vt 0.403861 0.598396
vt 0.360260 0.612563
vt 0.326149 0.565613
vt 0.403861 0.684762
vt 0.360260 0.670595
vt 0.270957 0.501835
vt 0.270957 0.547680
vt 0.353096 0.754634
vt 0.326149 0.717545
vt 0.188818 0.528524
vt 0.215764 0.565613
vt 0.270957 0.781323
vt 0.270957 0.735478
vt 0.138053 0.598396
vt 0.181654 0.612563
vt 0.188817 0.754634
vt 0.215764 0.717545
vt 0.138053 0.684762
vt 0.181654 0.670595
vt 0.917872 0.704550
vt 0.549306 0.780590
vt 0.216851 0.514565
vt 0.218539 0.362324
vt 0.816894 0.735468
vt 0.680924 0.803968
vt 0.914324 0.618475
vt 0.119480 0.666184
vt 0.087995 0.693772
vt 0.188817 0.754634
vt 0.215764 0.717545
vt 0.329465 0.521066
vt 0.346930 0.591464
vt 0.304480 0.451119
vt 0.783080 0.548546
vt 0.273105 0.382823
vt 0.236057 0.317205
vt 0.193864 0.255375
vt 0.146936 0.198843
vt 0.095520 0.150034
vt 0.039571 0.113321
vt 0.349332 0.724785
vt 0.354862 0.660513
vn 0.549087 0.000000 -0.835765
vn 0.549087 0.000000 -0.835765
vn 0.547426 0.077720 -0.833237
vn 0.547426 0.077720 -0.833237
vn -0.000000 0.000000 -1.000000
vn -0.000000 0.000000 -1.000000
vn -0.000000 0.075247 -0.997165
vn -0.000000 0.075247 -0.997165
vn -0.549087 0.000000 -0.835765
vn -0.549087 0.000000 -0.835765
vn -0.547426 0.077720 -0.833237
vn -0.547426 0.077720 -0.833237
vn -0.941092 0.000000 -0.338152
vn -0.941092 0.000000 -0.338152
vn -0.937899 0.082295 -0.337005
vn -0.937899 0.082295 -0.337005
vn -0.941092 0.000000 0.338152
vn -0.941092 0.000000 0.338152
vn -0.937899 0.082295 0.337005
vn -0.937899 0.082295 0.337005
vn -0.549087 0.000000 0.835765
vn -0.549087 0.000000 0.835765
vn -0.547426 0.077720 0.833237
vn -0.547426 0.077720 0.833237
vn 0.000000 0.000000 1.000000
vn 0.000000 0.000000 1.000000
vn 0.000000 0.075247 0.997165
vn 0.000000 0.075247 0.997165
vn 0.549087 0.000000 0.835765
vn 0.549087 0.000000 0.835765
vn 0.547426 0.077720 0.833237
vn 0.547426 0.077720 0.833237
vn 0.941092 0.000000 0.338152
vn 0.941092 0.000000 0.338152
vn 0.937899 0.082295 0.337005
vn 0.937899 0.082295 0.337005
vn 0.941092 0.000000 -0.338152
vn 0.941092 0.000000 -0.338152
vn 0.937899 0.082295 -0.337005
vn 0.937899 0.082295 -0.337005
vn 0.000000 -1.000000 0.000000
vn 0.000000 -1.000000 0.000000
vn 0.000000 -1.000000 -0.000000
vn 0.000000 -1.000000 0.000000
vn 0.000000 -1.000000 0.000000
vn 0.000000 -1.000000 0.000000
vn 0.000000 -1.000000 -0.000000
vn 0.000000 -1.000000 -0.000000
vn 0.000000 -1.000000 0.000000
vn 0.000000 -1.000000 0.000000
vn 0.000000 -1.000000 0.000000
vn -0.000000 1.000000 0.000000
vn 0.000000 1.000000 0.000000
vn 0.000000 1.000000 -0.000000
vn 0.000001 1.000000 -0.000000
vn 0.000000 1.000000 0.000001
vn -0.000000 1.000000 -0.000001
vn 0.000000 1.000000 -0.000001
vn 0.000000 1.000000 0.000001
vn -0.000000 1.000000 0.000000
vn -0.000000 1.000000 -0.000001
vn -0.000000 1.000000 -0.000001
vn 0.549030 0.014375 -0.835679
vn 0.549030 0.014375 -0.835679
vn -0.000000 0.013915 -0.999903
vn -0.000000 0.013915 -0.999903
vn -0.549030 0.014375 -0.835679
vn -0.549030 0.014375 -0.835679
vn -0.940982 0.015227 -0.338113
vn -0.940982 0.015227 -0.338113
vn -0.940982 0.015227 0.338113
vn -0.940982 0.015227 0.338113
vn -0.549030 0.014375 0.835679
vn -0.549030 0.014375 0.835679
vn 0.000000 0.013915 0.999903
vn 0.000000 0.013915 0.999903
vn 0.549031 0.014375 0.835679
vn 0.549031 0.014375 0.835679
vn 0.940982 0.015227 0.338113
vn 0.940982 0.015227 0.338113
vn 0.940982 0.015227 -0.338113
vn 0.940982 0.015227 -0.338113
vn 0.470091 -0.516757 -0.715525
vn 0.470091 -0.516757 -0.715525
vn 0.000000 -0.504479 -0.863424
vn 0.000000 -0.504479 -0.863424
vn -0.470091 -0.516757 -0.715525
vn -0.470091 -0.516757 -0.715525
vn -0.792883 -0.538674 -0.284898
vn -0.792883 -0.538674 -0.284898
vn -0.792883 -0.538674 0.284898
vn -0.792883 -0.538674 0.284898
vn -0.470091 -0.516757 0.715525
vn -0.470091 -0.516757 0.715525
vn 0.000000 -0.504479 0.863424
vn 0.000000 -0.504479 0.863424
vn 0.470091 -0.516757 0.715525
vn 0.470091 -0.516757 0.715525
vn 0.792883 -0.538674 0.284898
vn 0.792883 -0.538674 0.284898
vn 0.792883 -0.538674 -0.284898
vn 0.792883 -0.538674 -0.284898
vn -0.000001 1.000000 0.000001
vn -0.000000 1.000000 0.000001
vn -0.000000 1.000000 0.000001
vn -0.000001 1.000000 0.000001
vn 0.000000 1.000000 0.000001
vn 0.000000 1.000000 0.000001
vn 0.000000 1.000000 0.000000
vn 0.000000 1.000000 0.000000
vn 0.000000 1.000000 -0.000000
vn 0.000000 1.000000 -0.000000
vn 0.000000 1.000000 -0.000000
vn 0.000000 1.000000 0.000000
vn 0.000000 1.000000 0.000001
vn 0.000000 1.000000 0.000001
vn 0.000000 1.000000 0.000001
vn 0.000000 1.000000 0.000001
vn 0.000000 1.000000 -0.000000
vn 0.000000 1.000000 -0.000000
vn -0.000000 1.000000 0.000000
vn -0.000000 1.000000 0.000000
vn -0.549087 -0.000000 0.835765
vn -0.549087 -0.000000 0.835765
vn -0.549087 -0.000000 0.835765
vn -0.549087 -0.000000 0.835765
vn 0.000000 -0.000000 1.000000
vn 0.000000 -0.000000 1.000000
vn 0.000000 -0.000000 1.000000
vn 0.000000 -0.000000 1.000000
vn 0.549087 -0.000000 0.835765
vn 0.549087 -0.000000 0.835765
vn 0.549087 -0.000000 0.835765
vn 0.549087 -0.000000 0.835765
vn 0.941091 0.000000 0.338152
vn 0.941091 0.000000 0.338152
vn 0.941091 0.000000 0.338152
vn 0.941091 0.000000 0.338152
vn 0.941091 -0.000000 -0.338152
vn 0.941091 -0.000000 -0.338152
vn 0.941091 -0.000000 -0.338152
vn 0.941091 -0.000000 -0.338152
vn 0.549087 -0.000000 -0.835765
vn 0.549087 -0.000000 -0.835765
vn 0.549087 -0.000000 -0.835765
vn 0.549087 -0.000000 -0.835765
vn 0.000000 0.000000 -1.000000
vn 0.000000 0.000000 -1.000000
vn 0.000000 0.000000 -1.000000
vn 0.000000 0.000000 -1.000000
vn -0.549088 0.000000 -0.835765
vn -0.549088 0.000000 -0.835765
vn -0.549088 0.000000 -0.835765
vn -0.549088 0.000000 -0.835765
vn -0.941091 -0.000000 -0.338152
vn -0.941091 -0.000000 -0.338152
vn -0.941091 -0.000000 -0.338152
vn -0.941091 -0.000000 -0.338152
vn -0.941091 -0.000000 0.338152
vn -0.941091 -0.000000 0.338153
vn -0.941091 -0.000000 0.338152
vn -0.941091 -0.000000 0.338153
s 1
g pCylinder1
usemtl lambert2SG
f 1/23/1 2/29/2 12/30/3 11/24/4
s 2
f 2/29/5 3/99/6 13/100/7 12/30/8
s 3
f 3/9/9 4/1/10 14/4/11 13/10/12
s 4
f 4/1/13 5/2/14 15/3/15 14/4/16
s 5
f 5/2/17 6/5/18 16/6/19 15/3/20
s 6
f 6/5/21 7/11/22 17/12/23 16/6/24
s 7
f 7/11/25 8/27/26 18/28/27 17/12/28
s 8
f 8/27/29 9/19/30 19/22/31 18/28/32
s 9
f 9/19/33 10/20/34 20/21/35 19/22/36
s 10
f 10/20/37 1/23/38 11/24/39 20/21/40
s 11
f 2/57/41 1/58/42 21/59/43
f 3/61/44 2/57/41 21/59/43
f 4/63/45 3/61/44 21/59/43
f 5/65/46 4/63/45 21/59/43
f 6/67/47 5/65/46 21/59/43
f 7/66/48 6/67/47 21/59/43
f 8/64/49 7/66/48 21/59/43
f 9/62/50 8/64/49 21/59/43
f 10/60/51 9/62/50 21/59/43
f 1/58/42 10/60/51 21/59/43
s 12
f 52/68/52 53/69/53 54/70/54
f 53/69/53 55/71/55 54/70/54
f 55/71/55 56/73/56 54/70/54
f 56/73/56 57/75/57 54/70/54
f 57/75/57 58/77/58 54/70/54
f 58/77/58 59/78/59 54/70/54
f 59/78/59 60/76/60 54/70/54
f 60/76/60 61/74/61 54/70/54
f 61/74/61 62/72/62 54/70/54
f 62/72/62 52/68/52 54/70/54
s 1
f 11/24/4 12/30/3 23/121/63 22/111/64
s 2
f 12/30/8 13/100/7 24/120/65 23/121/66
s 3
f 13/10/12 14/4/11 25/118/67 24/119/68
s 4
f 14/4/16 15/3/15 26/117/69 25/118/70
s 5
f 15/3/20 16/6/19 27/116/71 26/117/72
s 6
f 16/6/24 17/12/23 28/115/73 27/116/74
s 7
f 17/12/28 18/28/27 29/114/75 28/115/76
s 8
f 18/28/32 19/22/31 30/112/77 29/114/78
s 9
f 19/22/36 20/21/35 31/110/79 30/112/80
s 10
f 20/21/40 11/24/39 22/111/81 31/110/82
s 1
f 22/31/64 23/35/63 33/102/83 32/36/84
s 2
f 23/35/66 24/16/65 34/101/85 33/102/86
s 3
f 24/16/68 25/8/67 35/15/87 34/101/88
s 4
f 25/8/70 26/7/69 36/14/89 35/15/90
s 5
f 26/7/72 27/13/71 37/18/91 36/14/92
s 6
f 27/13/74 28/17/73 38/104/93 37/18/94
s 7
f 28/17/76 29/34/75 39/103/95 38/104/96
s 8
f 29/34/78 30/113/77 40/105/97 39/103/98
s 9
f 30/26/80 31/25/79 41/32/99 40/33/100
s 10
f 31/25/82 22/31/81 32/36/101 41/32/102
s 13
f 32/79/103 33/80/104 43/81/105 42/82/106
f 33/80/104 34/83/107 44/84/108 43/81/105
f 34/83/107 35/87/109 45/88/110 44/84/108
f 35/87/109 36/91/111 46/92/112 45/88/110
f 36/91/111 37/108/113 47/109/114 46/92/112
f 37/95/113 38/97/115 48/98/116 47/96/114
f 38/97/115 39/93/117 49/94/118 48/98/116
f 39/93/117 40/89/119 50/90/120 49/94/118
f 40/89/119 41/85/121 51/86/122 50/90/120
f 41/85/121 32/79/103 42/82/106 51/86/122
s off
f 42/51/123 43/55/124 53/56/125 52/52/126
f 43/55/127 44/43/128 55/44/129 53/56/130
f 44/43/131 45/37/132 56/40/133 55/44/134
f 45/37/135 46/38/136 57/39/137 56/40/138
f 46/38/139 47/41/140 58/42/141 57/39/142
f 47/41/143 48/45/144 59/46/145 58/42/146
f 48/106/147 49/53/148 60/54/149 59/107/150
f 49/53/151 50/47/152 61/50/153 60/54/154
f 50/47/155 51/48/156 62/49/157 61/50/158
f 51/48/159 42/51/160 52/52/161 62/49/162
