# This file uses centimeters as units for non-parametric coordinates.

mtllib condensed milk(can).mtl
g default
v -46.681084 0.109690 13.670983
v -51.635714 0.109690 8.716361
v -58.403847 0.109690 6.902847
v -65.171981 0.109690 8.716361
v -70.126611 0.109690 13.670983
v -71.940122 0.109690 20.439119
v -70.126611 0.109690 27.207256
v -65.171981 0.109690 32.161878
v -58.403847 0.109690 33.975392
v -51.635714 0.109690 32.161878
v -46.681084 0.109690 27.207256
v -44.867567 0.109690 20.439119
v -46.681084 22.238779 13.670983
v -51.635714 22.238779 8.716361
v -58.403847 22.238779 6.902847
v -65.171981 22.238779 8.716361
v -70.126611 22.238779 13.670983
v -71.940122 22.238779 20.439119
v -70.126611 22.238779 27.207256
v -65.171981 22.238779 32.161878
v -58.403847 22.238779 33.975392
v -51.635714 22.238779 32.161878
v -46.681084 22.238779 27.207256
v -44.867567 22.238779 20.439119
v -46.681084 21.372160 13.670983
v -51.635714 21.372160 8.716361
v -58.403847 21.372160 6.902847
v -65.171981 21.372160 8.716361
v -70.126611 21.372160 13.670983
v -71.940122 21.372160 20.439119
v -70.126611 21.372160 27.207256
v -65.171981 21.372160 32.161878
v -58.403847 21.372160 33.975392
v -51.635714 21.372160 32.161878
v -46.681084 21.372160 27.207256
v -44.867567 21.372160 20.439119
v -46.681084 1.031140 13.670983
v -51.635714 1.031140 8.716361
v -58.403847 1.031140 6.902847
v -65.171981 1.031140 8.716361
v -70.126611 1.031140 13.670983
v -71.940122 1.031140 20.439119
v -70.126611 1.031140 27.207256
v -65.171981 1.031140 32.161878
v -58.403847 1.031140 33.975392
v -51.635714 1.031140 32.161878
v -46.681084 1.031140 27.207256
v -44.867567 1.031140 20.439119
v -47.039211 21.146965 13.877747
v -51.842474 21.146965 9.074487
v -58.403847 21.146965 7.316374
v -64.965215 21.146965 9.074487
v -69.768477 21.146965 13.877747
v -71.526595 21.146965 20.439119
v -69.768477 21.146965 27.000492
v -64.965215 21.146965 31.803752
v -58.403847 21.146965 33.561865
v -51.842474 21.146965 31.803752
v -47.039211 21.146965 27.000492
v -45.281100 21.146965 20.439119
v -47.039211 1.202538 13.877747
v -51.842467 1.202538 9.074487
v -58.403847 1.202538 7.316374
v -64.965215 1.202538 9.074487
v -69.768477 1.202538 13.877747
v -71.526595 1.202538 20.439119
v -69.768477 1.202538 27.000492
v -64.965215 1.202538 31.803752
v -58.403847 1.202538 33.561865
v -51.842467 1.202538 31.803752
v -47.039211 1.202538 27.000492
v -45.281100 1.202538 20.439119
v -47.366020 21.130527 14.066453
v -47.321413 22.238763 14.040701
v -45.606999 22.238763 20.439119
v -45.658507 21.130527 20.439119
v -52.031181 21.130527 9.401292
v -52.005420 22.238763 9.356688
v -58.403847 21.130527 7.693788
v -58.403847 22.238763 7.642281
v -64.776514 21.130527 9.401292
v -64.802268 22.238763 9.356688
v -69.441675 21.130527 14.066453
v -69.486282 22.238763 14.040701
v -71.149194 21.130527 20.439119
v -71.200695 22.238763 20.439119
v -69.441675 21.130527 26.811786
v -69.486282 22.238763 26.837538
v -64.776514 21.130527 31.476947
v -64.802268 22.238763 31.521551
v -58.403847 21.130527 33.184451
v -58.403847 22.238763 33.235958
v -52.031181 21.130527 31.476947
v -52.005420 22.238763 31.521551
v -47.366020 21.130527 26.811786
v -47.321413 22.238763 26.837538
v -47.366020 1.217936 26.811790
v -47.321413 0.109707 26.837544
v -45.606993 0.109707 20.439119
v -45.658494 1.217936 20.439119
v -52.031181 1.217936 31.476947
v -52.005420 0.109707 31.521551
v -58.403847 1.217936 33.184461
v -58.403847 0.109707 33.235968
v -64.776514 1.217936 31.476947
v -64.802268 0.109707 31.521551
v -69.441675 1.217936 26.811791
v -69.486282 0.109707 26.837543
v -71.149188 1.217936 20.439119
v -71.200695 0.109707 20.439119
v -69.441675 1.217936 14.066448
v -69.486282 0.109707 14.040696
v -64.776514 1.217936 9.401292
v -64.802268 0.109707 9.356688
v -58.403847 1.217936 7.693778
v -58.403847 0.109707 7.642271
v -52.031181 1.217936 9.401292
v -52.005420 0.109707 9.356688
v -47.366020 1.217936 14.066449
v -47.321413 0.109707 14.040695
vt 0.048882 0.009804
vt 0.156370 0.009804
vt 0.156370 0.029794
vt 0.048882 0.029794
vt 0.303202 0.009804
vt 0.303202 0.029794
vt 0.450035 0.009804
vt 0.450035 0.029794
vt 0.557524 0.009804
vt 0.557524 0.029794
vt 0.596867 0.009804
vt 0.009538 0.530104
vt 0.048881 0.510114
vt 0.048881 0.530104
vt 0.156370 0.510114
vt 0.156370 0.530104
vt 0.303202 0.510114
vt 0.303202 0.530104
vt 0.450035 0.510114
vt 0.450035 0.530104
vt 0.557523 0.510114
vt 0.557523 0.530104
vt 0.596867 0.510114
vt 0.009538 0.029794
vt 0.048882 0.471085
vt 0.156370 0.471085
vt 0.156370 0.489886
vt 0.048882 0.489886
vt 0.303202 0.471085
vt 0.303202 0.489886
vt 0.450035 0.471085
vt 0.450035 0.489886
vt 0.557524 0.471085
vt 0.557524 0.489886
vt 0.596867 0.471085
vt 0.009538 0.990196
vt 0.048881 0.971395
vt 0.048881 0.990196
vt 0.156370 0.971395
vt 0.156370 0.990196
vt 0.303202 0.971395
vt 0.303202 0.990196
vt 0.450035 0.971395
vt 0.450035 0.990196
vt 0.557523 0.971395
vt 0.557523 0.990196
vt 0.596867 0.971395
vt 0.009538 0.489886
vt 0.160856 0.033513
vt 0.056651 0.033513
vt 0.303202 0.033513
vt 0.445549 0.033513
vt 0.549754 0.033513
vt 0.018509 0.533823
vt 0.056651 0.533823
vt 0.160856 0.533823
vt 0.303202 0.533823
vt 0.445549 0.533823
vt 0.549754 0.533823
vt 0.018509 0.033513
vt 0.056651 0.466200
vt 0.160856 0.466200
vt 0.303202 0.466200
vt 0.445549 0.466200
vt 0.549754 0.466200
vt 0.587896 0.466200
vt 0.056651 0.966510
vt 0.160856 0.966510
vt 0.303202 0.966510
vt 0.445549 0.966510
vt 0.549754 0.966510
vt 0.587896 0.966510
vt 0.915274 0.199837
vt 0.963333 0.226725
vt 0.896800 0.181363
vt 0.951038 0.180840
vt 0.871563 0.174601
vt 0.917448 0.147250
vt 0.751285 0.122756
vt 0.757393 0.099962
vt 0.751285 0.077168
vt 0.911044 0.247684
vt 0.917152 0.224890
vt 0.911044 0.202096
vt 0.894357 0.264371
vt 0.871563 0.270479
vt 0.848769 0.264371
vt 0.832082 0.247684
vt 0.825975 0.224890
vt 0.832082 0.202096
vt 0.848769 0.185409
vt 0.871563 0.179301
vt 0.894357 0.185409
vt 0.734599 0.139443
vt 0.711804 0.145550
vt 0.689010 0.139443
vt 0.672323 0.122756
vt 0.666216 0.099962
vt 0.672323 0.077168
vt 0.689010 0.060481
vt 0.711804 0.054373
vt 0.734599 0.060481
vt 0.791280 0.147682
vt 0.762277 0.100145
vt 0.757689 0.181273
vt 0.755515 0.125382
vt 0.711804 0.193567
vt 0.737041 0.143856
vt 0.665919 0.181273
vt 0.711804 0.150618
vt 0.632329 0.147682
vt 0.686568 0.143856
vt 0.620034 0.101797
vt 0.668093 0.125382
vt 0.632329 0.055912
vt 0.661331 0.100145
vt 0.665919 0.022322
vt 0.668093 0.074909
vt 0.711804 0.010027
vt 0.686568 0.056434
vt 0.757689 0.022322
vt 0.711804 0.049672
vt 0.791280 0.055912
vt 0.737041 0.056434
vt 0.803575 0.101797
vt 0.755515 0.074909
vt 0.951038 0.272610
vt 0.922036 0.225074
vt 0.917448 0.306201
vt 0.915274 0.250310
vt 0.871563 0.318496
vt 0.896800 0.268785
vt 0.825678 0.306201
vt 0.871563 0.275546
vt 0.792088 0.272610
vt 0.846327 0.268785
vt 0.779793 0.226725
vt 0.827852 0.250310
vt 0.792088 0.180840
vt 0.821090 0.225074
vt 0.825678 0.147250
vt 0.827852 0.199837
vt 0.871563 0.134955
vt 0.846327 0.181363
vt 0.009538 0.510114
vt 0.779793 0.226725
vt 0.821090 0.225074
vt 0.922036 0.225074
vt 0.009538 0.009804
vt 0.963333 0.226725
vt 0.596867 0.489886
vt 0.620034 0.101797
vt 0.661331 0.100145
vt 0.762277 0.100145
vt 0.596867 0.990196
vt 0.803575 0.101797
vt 0.587896 0.533823
vt 0.018509 0.466200
vt 0.587896 0.033513
vt 0.018509 0.966510
vt 0.009538 0.471085
vt 0.009538 0.971395
vt 0.596867 0.530104
vt 0.596867 0.029794
vn 0.707106 0.000000 -0.707107
vn 0.707106 0.000000 -0.707107
vn 0.674868 0.298506 -0.674869
vn 0.674867 0.298509 -0.674868
vn 0.258819 0.000000 -0.965926
vn 0.258819 0.000000 -0.965926
vn 0.247018 0.298511 -0.921886
vn 0.247018 0.298514 -0.921885
vn -0.258819 0.000000 -0.965926
vn -0.258819 0.000000 -0.965926
vn -0.247018 0.298511 -0.921886
vn -0.247018 0.298512 -0.921885
vn -0.707106 0.000000 -0.707107
vn -0.707106 0.000000 -0.707107
vn -0.674866 0.298512 -0.674867
vn -0.674866 0.298515 -0.674867
vn -0.965926 0.000000 -0.258818
vn -0.965926 0.000000 -0.258818
vn -0.921885 0.298514 -0.247018
vn -0.921884 0.298516 -0.247018
vn -0.965926 0.000000 0.258818
vn -0.965926 0.000000 0.258818
vn -0.921884 0.298516 0.247017
vn -0.921885 0.298514 0.247018
vn -0.707106 0.000000 0.707107
vn -0.707106 0.000000 0.707107
vn -0.674866 0.298515 0.674867
vn -0.674866 0.298512 0.674867
vn -0.258819 0.000000 0.965926
vn -0.258819 0.000000 0.965926
vn -0.247018 0.298512 0.921885
vn -0.247018 0.298511 0.921886
vn 0.258819 0.000000 0.965926
vn 0.258819 0.000000 0.965926
vn 0.247018 0.298514 0.921885
vn 0.247018 0.298511 0.921886
vn 0.707106 0.000000 0.707107
vn 0.707106 0.000000 0.707107
vn 0.674867 0.298509 0.674868
vn 0.674868 0.298506 0.674868
vn 0.965926 0.000000 0.258819
vn 0.965926 0.000000 0.258819
vn 0.921885 0.298514 0.247018
vn 0.921884 0.298515 0.247018
vn 0.965926 0.000000 -0.258819
vn 0.965926 0.000000 -0.258819
vn 0.921884 0.298515 -0.247018
vn 0.921885 0.298514 -0.247018
vn 0.673835 -0.303134 -0.673837
vn 0.673836 -0.303133 -0.673837
vn 0.707106 0.000000 -0.707107
vn 0.707106 0.000000 -0.707107
vn 0.246641 -0.303136 -0.920476
vn 0.246641 -0.303135 -0.920477
vn 0.258819 0.000000 -0.965926
vn 0.258819 0.000000 -0.965926
vn -0.246641 -0.303135 -0.920477
vn -0.246641 -0.303134 -0.920477
vn -0.258819 0.000000 -0.965926
vn -0.258819 0.000000 -0.965926
vn -0.673834 -0.303138 -0.673836
vn -0.673835 -0.303135 -0.673836
vn -0.707106 0.000000 -0.707107
vn -0.707106 0.000000 -0.707107
vn -0.920476 -0.303139 -0.246640
vn -0.920476 -0.303138 -0.246640
vn -0.965926 0.000000 -0.258818
vn -0.965926 0.000000 -0.258818
vn -0.920476 -0.303138 0.246640
vn -0.920476 -0.303139 0.246640
vn -0.965926 0.000000 0.258818
vn -0.965926 0.000000 0.258818
vn -0.673835 -0.303135 0.673836
vn -0.673834 -0.303138 0.673836
vn -0.707106 0.000000 0.707107
vn -0.707106 0.000000 0.707107
vn -0.246641 -0.303134 0.920477
vn -0.246641 -0.303135 0.920477
vn -0.258819 0.000000 0.965926
vn -0.258819 0.000000 0.965926
vn 0.246641 -0.303135 0.920477
vn 0.246641 -0.303136 0.920476
vn 0.258819 0.000000 0.965926
vn 0.258819 0.000000 0.965926
vn 0.673836 -0.303133 0.673837
vn 0.673835 -0.303134 0.673837
vn 0.707106 0.000000 0.707107
vn 0.707106 0.000000 0.707107
vn 0.920476 -0.303138 0.246641
vn 0.920476 -0.303138 0.246641
vn 0.965926 0.000000 0.258819
vn 0.965926 0.000000 0.258819
vn 0.920476 -0.303138 -0.246641
vn 0.920476 -0.303138 -0.246641
vn 0.965926 0.000000 -0.258819
vn 0.965926 0.000000 -0.258819
vn 0.706916 0.023230 -0.706916
vn 0.706916 0.023230 -0.706916
vn 0.258749 0.023229 -0.965665
vn 0.258749 0.023229 -0.965665
vn -0.258749 0.023230 -0.965665
vn -0.258749 0.023230 -0.965665
vn -0.706916 0.023230 -0.706916
vn -0.706916 0.023230 -0.706916
vn -0.965665 0.023230 -0.258750
vn -0.965665 0.023230 -0.258750
vn -0.965665 0.023230 0.258750
vn -0.965665 0.023230 0.258750
vn -0.706916 0.023230 0.706916
vn -0.706916 0.023230 0.706916
vn -0.258749 0.023230 0.965665
vn -0.258749 0.023230 0.965665
vn 0.258749 0.023229 0.965665
vn 0.258749 0.023229 0.965665
vn 0.706916 0.023230 0.706916
vn 0.706916 0.023230 0.706916
vn 0.965665 0.023230 0.258749
vn 0.965665 0.023230 0.258749
vn 0.965665 0.023230 -0.258749
vn 0.965665 0.023230 -0.258749
vn 0.706920 -0.023004 -0.706920
vn 0.706920 -0.023004 -0.706920
vn 0.258750 -0.023004 -0.965670
vn 0.258750 -0.023004 -0.965670
vn -0.258751 -0.023004 -0.965670
vn -0.258751 -0.023004 -0.965670
vn -0.706919 -0.023004 -0.706920
vn -0.706919 -0.023005 -0.706920
vn -0.965670 -0.023004 -0.258751
vn -0.965670 -0.023004 -0.258751
vn -0.965670 -0.023004 0.258751
vn -0.965670 -0.023004 0.258751
vn -0.706919 -0.023005 0.706920
vn -0.706919 -0.023004 0.706920
vn -0.258751 -0.023004 0.965670
vn -0.258751 -0.023004 0.965670
vn 0.258750 -0.023004 0.965670
vn 0.258750 -0.023004 0.965670
vn 0.706920 -0.023004 0.706920
vn 0.706920 -0.023004 0.706920
vn 0.965670 -0.023004 0.258750
vn 0.965670 -0.023004 0.258750
vn 0.965670 -0.023004 -0.258750
vn 0.965670 -0.023004 -0.258750
vn -0.015192 0.999846 0.008771
vn -0.658185 0.649916 0.380002
vn -0.380003 0.649916 0.658185
vn -0.008771 0.999846 0.015192
vn -0.017542 0.999846 0.000000
vn -0.760005 0.649917 -0.000000
vn -0.015192 0.999846 -0.008771
vn -0.658185 0.649916 -0.380002
vn -0.000000 0.649915 0.760007
vn -0.000000 0.999846 0.017542
vn 0.380002 0.649915 0.658186
vn 0.008771 0.999846 0.015192
vn 0.658186 0.649914 0.380003
vn 0.015192 0.999846 0.008771
vn 0.760008 0.649914 0.000000
vn 0.017542 0.999846 0.000000
vn 0.658186 0.649914 -0.380003
vn 0.015192 0.999846 -0.008771
vn 0.380002 0.649915 -0.658186
vn 0.008771 0.999846 -0.015192
vn -0.000000 0.649915 -0.760007
vn -0.000000 0.999846 -0.017542
vn -0.380003 0.649915 -0.658185
vn -0.008771 0.999846 -0.015192
vn -0.015192 -0.999846 -0.008771
vn -0.658185 -0.649916 -0.380003
vn -0.380003 -0.649916 -0.658185
vn -0.008771 -0.999846 -0.015192
vn -0.017542 -0.999846 -0.000000
vn -0.760006 -0.649916 0.000000
vn -0.015192 -0.999846 0.008771
vn -0.658185 -0.649916 0.380002
vn 0.000000 -0.649916 -0.760006
vn 0.000000 -0.999846 -0.017542
vn 0.380002 -0.649916 -0.658185
vn 0.008771 -0.999846 -0.015192
vn 0.658185 -0.649917 -0.380002
vn 0.015192 -0.999846 -0.008771
vn 0.760005 -0.649917 0.000000
vn 0.017542 -0.999846 -0.000000
vn 0.658184 -0.649917 0.380002
vn 0.015192 -0.999846 0.008771
vn 0.380002 -0.649916 0.658185
vn 0.008771 -0.999846 0.015192
vn -0.000000 -0.649916 0.760006
vn -0.000000 -0.999846 0.017542
vn -0.380003 -0.649916 0.658185
vn -0.008771 -0.999846 0.015192
vn -0.000022 1.000000 -0.000000
vn -0.000019 1.000000 0.000011
vn -0.000011 1.000000 0.000019
vn 0.000000 1.000000 0.000021
vn 0.000011 1.000000 0.000019
vn 0.000019 1.000000 0.000011
vn 0.000022 1.000000 0.000000
vn 0.000019 1.000000 -0.000011
vn 0.000011 1.000000 -0.000019
vn 0.000000 1.000000 -0.000021
vn -0.000011 1.000000 -0.000019
vn -0.000019 1.000000 -0.000011
vn -0.000022 -1.000000 0.000000
vn -0.000019 -1.000000 -0.000011
vn -0.000011 -1.000000 -0.000019
vn 0.000000 -1.000000 -0.000021
vn 0.000011 -1.000000 -0.000018
vn 0.000019 -1.000000 -0.000011
vn 0.000022 -1.000000 0.000000
vn 0.000019 -1.000000 0.000011
vn 0.000011 -1.000000 0.000019
vn 0.000000 -1.000000 0.000021
vn -0.000011 -1.000000 0.000018
vn -0.000019 -1.000000 0.000011
s 1
g pCylinder2 group1
usemtl lambert2SG
f 1/1/1 2/2/2 38/3/3 37/4/4
s 2
f 2/2/5 3/5/6 39/6/7 38/3/8
s 3
f 3/5/9 4/7/10 40/8/11 39/6/12
s 4
f 4/7/13 5/9/14 41/10/15 40/8/16
s 5
f 5/9/17 6/11/18 42/164/19 41/10/20
s 6
f 6/145/21 7/13/22 43/14/23 42/12/24
s 7
f 7/13/25 8/15/26 44/16/27 43/14/28
s 8
f 8/15/29 9/17/30 45/18/31 44/16/32
s 9
f 9/17/33 10/19/34 46/20/35 45/18/36
s 10
f 10/19/37 11/21/38 47/22/39 46/20/40
s 11
f 11/21/41 12/23/42 48/163/43 47/22/44
s 12
f 12/149/45 1/1/46 37/4/47 48/24/48
s 1
f 25/25/49 26/26/50 14/27/51 13/28/52
s 2
f 26/26/53 27/29/54 15/30/55 14/27/56
s 3
f 27/29/57 28/31/58 16/32/59 15/30/60
s 4
f 28/31/61 29/33/62 17/34/63 16/32/64
s 5
f 29/33/65 30/35/66 18/151/67 17/34/68
s 6
f 30/162/69 31/37/70 19/38/71 18/36/72
s 7
f 31/37/73 32/39/74 20/40/75 19/38/76
s 8
f 32/39/77 33/41/78 21/42/79 20/40/80
s 9
f 33/41/81 34/43/82 22/44/83 21/42/84
s 10
f 34/43/85 35/45/86 23/46/87 22/44/88
s 11
f 35/45/89 36/47/90 24/155/91 23/46/92
s 12
f 36/161/93 25/25/94 13/28/95 24/48/96
s 1
f 37/4/4 38/3/3 62/49/97 61/50/98
s 2
f 38/3/8 39/6/7 63/51/99 62/49/100
s 3
f 39/6/12 40/8/11 64/52/101 63/51/102
s 4
f 40/8/16 41/10/15 65/53/103 64/52/104
s 5
f 41/10/20 42/164/19 66/159/105 65/53/106
s 6
f 42/12/24 43/14/23 67/55/107 66/54/108
s 7
f 43/14/28 44/16/27 68/56/109 67/55/110
s 8
f 44/16/32 45/18/31 69/57/111 68/56/112
s 9
f 45/18/36 46/20/35 70/58/113 69/57/114
s 10
f 46/20/40 47/22/39 71/59/115 70/58/116
s 11
f 47/22/44 48/163/43 72/157/117 71/59/118
s 12
f 48/24/48 37/4/47 61/50/119 72/60/120
s 1
f 49/61/121 50/62/122 26/26/50 25/25/49
s 2
f 50/62/123 51/63/124 27/29/54 26/26/53
s 3
f 51/63/125 52/64/126 28/31/58 27/29/57
s 4
f 52/64/127 53/65/128 29/33/62 28/31/61
s 5
f 53/65/129 54/66/130 30/35/66 29/33/65
s 6
f 54/160/131 55/67/132 31/37/70 30/162/69
s 7
f 55/67/133 56/68/134 32/39/74 31/37/73
s 8
f 56/68/135 57/69/136 33/41/78 32/39/77
s 9
f 57/69/137 58/70/138 34/43/82 33/41/81
s 10
f 58/70/139 59/71/140 35/45/86 34/43/85
s 11
f 59/71/141 60/72/142 36/47/90 35/45/89
s 12
f 60/158/143 49/61/144 25/25/94 36/161/93
s 1
f 61/50/98 62/49/97 50/62/122 49/61/121
s 2
f 62/49/100 63/51/99 51/63/124 50/62/123
s 3
f 63/51/102 64/52/101 52/64/126 51/63/125
s 4
f 64/52/104 65/53/103 53/65/128 52/64/127
s 5
f 65/53/106 66/159/105 54/66/130 53/65/129
s 6
f 66/54/108 67/55/107 55/67/132 54/160/131
s 7
f 67/55/110 68/56/109 56/68/134 55/67/133
s 8
f 68/56/112 69/57/111 57/69/136 56/68/135
s 9
f 69/57/114 70/58/113 58/70/138 57/69/137
s 10
f 70/58/116 71/59/115 59/71/140 58/70/139
s 11
f 71/59/118 72/157/117 60/72/142 59/71/141
s 12
f 72/60/120 61/50/119 49/61/144 60/158/143
s 25
f 73/79/145 74/106/146 78/108/147 77/94/148
f 74/106/146 73/79/145 76/80/149 75/154/150
f 75/104/150 76/80/149 95/81/151 96/126/152
f 77/94/148 78/108/147 80/110/153 79/95/154
f 79/95/154 80/110/153 82/112/155 81/96/156
f 81/96/156 82/112/155 84/114/157 83/97/158
f 83/97/158 84/114/157 86/116/159 85/98/160
f 85/98/160 86/153/159 88/118/161 87/99/162
f 87/99/162 88/118/161 90/120/163 89/100/164
f 89/100/164 90/120/163 92/122/165 91/101/166
f 91/101/166 92/122/165 94/124/167 93/102/168
f 93/102/168 94/124/167 96/126/152 95/81/151
s 26
f 97/82/169 98/130/170 102/132/171 101/85/172
f 98/130/170 97/82/169 100/83/173 99/148/174
f 99/128/174 100/83/173 119/84/175 120/73/176
f 101/85/172 102/132/171 104/134/177 103/86/178
f 103/86/178 104/134/177 106/136/179 105/87/180
f 105/87/180 106/136/179 108/138/181 107/88/182
f 107/88/182 108/138/181 110/140/183 109/89/184
f 109/89/184 110/147/183 112/142/185 111/90/186
f 111/90/186 112/142/185 114/144/187 113/91/188
f 113/91/188 114/144/187 116/77/189 115/92/190
f 115/92/190 116/77/189 118/75/191 117/93/192
f 117/93/192 118/75/191 120/73/176 119/84/175
f 97/82/169 101/85/172 103/86/178 105/87/180 107/88/182 109/89/184 111/90/186 113/91/188 115/92/190 117/93/192 119/84/175 100/83/173
s 25
f 76/80/149 73/79/145 77/94/148 79/95/154 81/96/156 83/97/158 85/98/160 87/99/162 89/100/164 91/101/166 93/102/168 95/81/151
f 24/125/193 13/103/194 74/106/146 75/154/150
f 13/103/194 14/105/195 78/108/147 74/106/146
f 14/105/195 15/107/196 80/110/153 78/108/147
f 15/107/196 16/109/197 82/112/155 80/110/153
f 16/109/197 17/111/198 84/114/157 82/112/155
f 17/111/198 18/152/199 86/116/159 84/114/157
f 18/113/199 19/115/200 88/118/161 86/153/159
f 19/115/200 20/117/201 90/120/163 88/118/161
f 20/117/201 21/119/202 92/122/165 90/120/163
f 21/119/202 22/121/203 94/124/167 92/122/165
f 22/121/203 23/123/204 96/126/152 94/124/167
f 23/123/204 24/156/193 75/104/150 96/126/152
s 26
f 12/74/205 11/127/206 98/130/170 99/148/174
f 11/127/206 10/129/207 102/132/171 98/130/170
f 10/129/207 9/131/208 104/134/177 102/132/171
f 9/131/208 8/133/209 106/136/179 104/134/177
f 8/133/209 7/135/210 108/138/181 106/136/179
f 7/135/210 6/146/211 110/140/183 108/138/181
f 6/137/211 5/139/212 112/142/185 110/147/183
f 5/139/212 4/141/213 114/144/187 112/142/185
f 4/141/213 3/143/214 116/77/189 114/144/187
f 3/143/214 2/78/215 118/75/191 116/77/189
f 2/78/215 1/76/216 120/73/176 118/75/191
f 1/76/216 12/150/205 99/128/174 120/73/176
