# This file uses centimeters as units for non-parametric coordinates.

mtllib cuc.mtl
g default
v 49.913113 60.829862 -49.798757
v 49.765248 60.952338 -49.823855
v 49.575919 60.974884 -49.863043
v 49.405240 60.890343 -49.903881
v 49.307397 60.725554 -49.933403
v 49.313458 60.532838 -49.942234
v 49.421496 60.373381 -49.927572
v 49.597209 60.297809 -49.894072
v 49.784813 60.330115 -49.852369
v 49.924742 60.460044 -49.815705
v 49.972570 60.646342 -49.795719
v 50.146297 61.000961 -49.546186
v 49.862545 61.235990 -49.594346
v 49.499228 61.279256 -49.669551
v 49.171696 61.117021 -49.747917
v 48.983940 60.800794 -49.804568
v 48.995569 60.430975 -49.821515
v 49.202892 60.124979 -49.793380
v 49.540086 59.979957 -49.729094
v 49.900093 60.041953 -49.649067
v 50.168613 60.291284 -49.578709
v 50.260395 60.648788 -49.540356
v 50.321440 61.136527 -49.104274
v 49.924789 61.465069 -49.171599
v 49.416915 61.525549 -49.276722
v 48.959067 61.298765 -49.386270
v 48.696605 60.856719 -49.465460
v 48.712862 60.339758 -49.489152
v 49.002674 59.912012 -49.449822
v 49.474029 59.709290 -49.359957
v 49.977275 59.795952 -49.248090
v 50.352635 60.144485 -49.149738
v 50.480934 60.644233 -49.096125
v 50.424538 61.225852 -48.519152
v 49.947123 61.621290 -48.600184
v 49.335839 61.694085 -48.726713
v 48.784765 61.421124 -48.858566
v 48.468862 60.889070 -48.953881
v 48.488428 60.266847 -48.982396
v 48.837251 59.752007 -48.935058
v 49.404582 59.508006 -48.826896
v 50.010295 59.612315 -48.692252
v 50.462085 60.031815 -48.573872
v 50.616509 60.633318 -48.509343
v 50.406050 61.209211 -47.944133
v 49.898429 61.653083 -48.035655
v 49.233590 61.749546 -48.155523
v 48.622610 61.467973 -48.265680
v 48.259474 60.897762 -48.331152
v 48.259474 60.219951 -48.331152
v 48.622610 59.649740 -48.265680
v 49.233589 59.368167 -48.155523
v 49.898429 59.464629 -48.035655
v 50.406050 59.908501 -47.944133
v 50.595284 60.558856 -47.910015
v 50.212316 61.111654 -46.977249
v 49.700059 61.555526 -46.977249
v 49.029148 61.651989 -46.977249
v 48.412589 61.370416 -46.977249
v 48.046137 60.800205 -46.977249
v 48.046137 60.122394 -46.977249
v 48.412589 59.552183 -46.977249
v 49.029148 59.270610 -46.977249
v 49.700059 59.367072 -46.977249
v 50.212315 59.810944 -46.977249
v 50.403276 60.461299 -46.977249
v 50.096891 61.111654 -45.277207
v 49.584636 61.555526 -45.277207
v 48.913724 61.651989 -45.277207
v 48.297165 61.370416 -45.277207
v 47.930713 60.800205 -45.277207
v 47.930713 60.122394 -45.277207
v 48.297165 59.552183 -45.277207
v 48.913724 59.270610 -45.277207
v 49.584636 59.367072 -45.277207
v 50.096891 59.810944 -45.277207
v 50.287852 60.461299 -45.277207
vt 0.663006 0.531986
vt 0.675453 0.505735
vt 0.731088 0.525493
vt 0.689065 0.558645
vt 0.685311 0.436515
vt 0.780658 0.457751
vt 0.777510 0.580605
vt 0.716057 0.605013
vt 0.700796 0.320928
vt 0.842061 0.333155
vt 0.853896 0.537166
vt 0.962025 0.464242
vt 0.880987 0.629583
vt 0.797803 0.652911
vt 0.990815 0.610939
vt 0.884277 0.759162
vt 0.804624 0.764874
vt 0.971816 0.765131
vt 0.874128 0.954202
vt 0.801635 0.948614
vt 0.948063 0.962682
vt 0.486974 0.551207
vt 0.524401 0.565144
vt 0.510776 0.607679
vt 0.459013 0.592632
vt 0.564693 0.569919
vt 0.560548 0.615037
vt 0.498126 0.660693
vt 0.439281 0.646482
vt 0.606915 0.572054
vt 0.610579 0.617975
vt 0.553648 0.670282
vt 0.486835 0.782460
vt 0.423004 0.772599
vt 0.609103 0.675617
vt 0.547912 0.787602
vt 0.478527 0.939620
vt 0.414669 0.937995
vt 0.608037 0.787654
vt 0.540838 0.940896
vt 0.602940 0.941948
vt 0.671982 0.118950
vt 0.641095 0.093366
vt 0.661419 0.034116
vt 0.720691 0.083210
vt 0.674411 0.196200
vt 0.645182 0.223340
vt 0.605995 0.230088
vt 0.569290 0.214302
vt 0.546723 0.180994
vt 0.545457 0.140738
vt 0.565895 0.106316
vt 0.601547 0.088657
vt 0.684402 0.157285
vt 0.585528 0.025078
vt 0.744525 0.156774
vt 0.725353 0.231451
vt 0.669262 0.283533
vt 0.594062 0.296483
vt 0.604674 0.530345
vt 0.566839 0.528920
vt 0.533803 0.531599
vt 0.512670 0.529513
vt 0.648649 0.570457
vt 0.471973 0.317682
vt 0.491898 0.430640
vt 0.398189 0.448726
vt 0.331463 0.328393
vt 0.502416 0.500701
vt 0.447815 0.516314
vt 0.323327 0.522390
vt 0.211603 0.457824
vt 0.399699 0.565192
vt 0.288277 0.606198
vt 0.178550 0.600619
vt 0.371951 0.627271
vt 0.277053 0.748753
vt 0.192714 0.748050
vt 0.353892 0.759848
vt 0.279156 0.934703
vt 0.392815 0.195126
vt 0.348252 0.936137
vt 0.639094 0.533623
vt 0.661785 0.615839
vt 0.728521 0.668758
vt 0.666687 0.675776
vt 0.733755 0.774393
vt 0.669212 0.782845
vt 0.732294 0.945239
vt 0.666350 0.943240
vt 0.523627 0.266190
vt 0.480320 0.202271
vt 0.477891 0.125022
vt 0.517111 0.058967
vt 0.208581 0.934688
vt 0.361939 0.300281
vt 0.279113 0.372051
vt 0.170633 0.387648
vt 0.070943 0.342120
vt 0.011691 0.249923
vt 0.011691 0.140329
vt 0.070943 0.048132
vt 0.170633 0.002604
vt 0.279113 0.018201
vt 0.361939 0.089971
vn 0.491669 0.439559 -0.751698
vn 0.491669 0.439559 -0.751697
vn 0.491669 0.439559 -0.751698
vn 0.491669 0.439559 -0.751697
vn 0.231284 0.562775 -0.793595
vn 0.231284 0.562775 -0.793595
vn 0.231284 0.562775 -0.793595
vn 0.231284 0.562775 -0.793595
vn -0.057076 0.525329 -0.848983
vn -0.057076 0.525329 -0.848983
vn -0.057076 0.525329 -0.848983
vn -0.057076 0.525329 -0.848983
vn -0.282363 0.329078 -0.901099
vn -0.282363 0.329078 -0.901099
vn -0.282363 0.329078 -0.901099
vn -0.282363 0.329078 -0.901099
vn -0.363573 0.031233 -0.931042
vn -0.363573 0.031233 -0.931042
vn -0.363573 0.031233 -0.931042
vn -0.363573 0.031233 -0.931042
vn -0.266626 -0.265829 -0.926416
vn -0.266626 -0.265829 -0.926416
vn -0.266626 -0.265829 -0.926416
vn -0.266626 -0.265829 -0.926416
vn -0.026893 -0.456705 -0.889212
vn -0.026893 -0.456705 -0.889212
vn -0.026893 -0.456705 -0.889212
vn -0.026893 -0.456706 -0.889211
vn 0.268379 -0.481340 -0.834437
vn 0.268379 -0.481340 -0.834437
vn 0.268379 -0.481340 -0.834437
vn 0.268379 -0.481340 -0.834437
vn 0.522334 -0.342118 -0.781103
vn 0.522334 -0.342118 -0.781103
vn 0.522334 -0.342118 -0.781103
vn 0.522334 -0.342118 -0.781103
vn 0.661404 -0.089918 -0.744621
vn 0.661404 -0.089918 -0.744621
vn 0.661404 -0.089918 -0.744621
vn 0.661404 -0.089918 -0.744621
vn 0.649543 0.198288 -0.734013
vn 0.649543 0.198288 -0.734013
vn 0.649543 0.198288 -0.734013
vn 0.649543 0.198288 -0.734013
vn 0.615124 0.651716 -0.443721
vn 0.615124 0.651716 -0.443721
vn 0.615124 0.651716 -0.443721
vn 0.615124 0.651716 -0.443721
vn 0.202321 0.848245 -0.489436
vn 0.202321 0.848245 -0.489436
vn 0.202321 0.848245 -0.489436
vn 0.202321 0.848245 -0.489436
vn -0.260582 0.792461 -0.551455
vn -0.260582 0.792461 -0.551455
vn -0.260582 0.792461 -0.551455
vn -0.260582 0.792461 -0.551455
vn -0.627593 0.482137 -0.611287
vn -0.627593 0.482137 -0.611287
vn -0.627593 0.482137 -0.611287
vn -0.627593 0.482137 -0.611287
vn -0.762472 0.005674 -0.646997
vn -0.762472 0.005674 -0.646997
vn -0.762472 0.005674 -0.646997
vn -0.762472 0.005674 -0.646997
vn -0.605019 -0.469077 -0.643365
vn -0.605019 -0.469077 -0.643365
vn -0.605019 -0.469077 -0.643365
vn -0.605019 -0.469077 -0.643365
vn -0.215766 -0.768631 -0.602206
vn -0.215766 -0.768631 -0.602206
vn -0.215766 -0.768631 -0.602206
vn -0.215766 -0.768631 -0.602206
vn 0.258083 -0.800563 -0.540825
vn 0.258083 -0.800563 -0.540825
vn 0.258083 -0.800563 -0.540825
vn 0.258083 -0.800563 -0.540825
vn 0.660979 -0.576199 -0.480730
vn 0.660979 -0.576198 -0.480730
vn 0.660979 -0.576198 -0.480730
vn 0.660979 -0.576198 -0.480730
vn 0.880503 -0.178956 -0.438963
vn 0.880503 -0.178956 -0.438963
vn 0.880503 -0.178956 -0.438963
vn 0.880503 -0.178956 -0.438963
vn 0.862903 0.272519 -0.425595
vn 0.862903 0.272519 -0.425595
vn 0.862903 0.272519 -0.425595
vn 0.862903 0.272519 -0.425595
vn 0.643896 0.731255 -0.225086
vn 0.643896 0.731255 -0.225086
vn 0.643896 0.731255 -0.225086
vn 0.643896 0.731255 -0.225086
vn 0.168107 0.949182 -0.266071
vn 0.168107 0.949182 -0.266071
vn 0.168107 0.949182 -0.266071
vn 0.168107 0.949182 -0.266071
vn -0.357449 0.876891 -0.321392
vn -0.357449 0.876891 -0.321392
vn -0.357449 0.876891 -0.321392
vn -0.357449 0.876891 -0.321392
vn -0.766415 0.522090 -0.374207
vn -0.766415 0.522090 -0.374207
vn -0.766415 0.522090 -0.374207
vn -0.766415 0.522090 -0.374207
vn -0.913754 -0.010121 -0.406143
vn -0.913754 -0.010121 -0.406143
vn -0.913754 -0.010121 -0.406143
vn -0.913754 -0.010121 -0.406143
vn -0.739283 -0.538114 -0.404839
vn -0.739283 -0.538114 -0.404839
vn -0.739283 -0.538114 -0.404839
vn -0.739283 -0.538114 -0.404839
vn -0.306326 -0.876680 -0.370941
vn -0.306326 -0.876680 -0.370941
vn -0.306326 -0.876680 -0.370941
vn -0.306326 -0.876680 -0.370941
vn 0.229055 -0.920142 -0.317603
vn 0.229055 -0.920142 -0.317603
vn 0.229055 -0.920142 -0.317603
vn 0.229055 -0.920142 -0.317603
vn 0.692585 -0.671664 -0.263047
vn 0.692585 -0.671664 -0.263047
vn 0.692585 -0.671664 -0.263047
vn 0.692585 -0.671664 -0.263047
vn 0.949597 -0.219812 -0.223489
vn 0.949597 -0.219812 -0.223489
vn 0.949597 -0.219812 -0.223489
vn 0.949597 -0.219812 -0.223489
vn 0.931198 0.298222 -0.209603
vn 0.931198 0.298222 -0.209603
vn 0.931198 0.298222 -0.209603
vn 0.931198 0.298222 -0.209603
vn 0.645470 0.763276 0.027903
vn 0.645470 0.763276 0.027903
vn 0.645470 0.763276 0.027903
vn 0.645470 0.763276 0.027903
vn 0.142083 0.988210 -0.057038
vn 0.142083 0.988210 -0.057038
vn 0.142083 0.988210 -0.057038
vn 0.142083 0.988210 -0.057038
vn -0.395549 0.902728 -0.169184
vn -0.395549 0.902728 -0.169184
vn -0.395549 0.902728 -0.169184
vn -0.395549 0.902728 -0.169184
vn -0.801871 0.533290 -0.269452
vn -0.801871 0.533290 -0.269452
vn -0.801871 0.533290 -0.269452
vn -0.801871 0.533290 -0.269452
vn -0.945503 -0.007090 -0.325537
vn -0.945503 -0.007090 -0.325537
vn -0.945503 -0.007090 -0.325537
vn -0.945503 -0.007090 -0.325537
vn -0.775887 -0.542567 -0.321902
vn -0.775887 -0.542567 -0.321902
vn -0.775887 -0.542567 -0.321902
vn -0.775887 -0.542567 -0.321902
vn -0.351846 -0.898235 -0.263399
vn -0.351846 -0.898235 -0.263399
vn -0.351846 -0.898235 -0.263399
vn -0.351846 -0.898235 -0.263399
vn 0.186893 -0.967613 -0.169694
vn 0.186893 -0.967613 -0.169694
vn 0.186893 -0.967613 -0.169694
vn 0.186893 -0.967613 -0.169694
vn 0.675447 -0.734399 -0.066556
vn 0.675447 -0.734399 -0.066556
vn 0.675447 -0.734399 -0.066556
vn 0.675447 -0.734399 -0.066556
vn 0.963813 -0.265985 0.017785
vn 0.963813 -0.265985 0.017785
vn 0.963813 -0.265985 0.017785
vn 0.963813 -0.265985 0.017785
vn 0.954042 0.294560 0.055114
vn 0.954042 0.294560 0.055114
vn 0.954042 0.294560 0.055114
vn 0.954042 0.294560 0.055114
vn 0.633967 0.748414 0.194840
vn 0.633967 0.748414 0.194840
vn 0.648787 0.754671 0.097707
vn 0.647820 0.754436 0.105614
vn 0.132427 0.985094 0.109783
vn 0.132427 0.985094 0.109783
vn 0.138968 0.989265 0.045199
vn 0.138061 0.988922 0.054519
vn -0.417108 0.908855 0.001806
vn -0.417108 0.908855 0.001806
vn -0.415985 0.909212 -0.017030
vn -0.416175 0.909177 -0.014008
vn -0.836170 0.540343 -0.094072
vn -0.836170 0.540343 -0.094072
vn -0.838536 0.540084 -0.071876
vn -0.838259 0.540132 -0.074697
vn -0.987812 0.000000 -0.155651
vn -0.987812 0.000000 -0.155651
vn -0.994398 0.000000 -0.105701
vn -0.994119 0.000000 -0.108295
vn -0.825309 -0.537865 -0.171949
vn -0.825309 -0.537865 -0.171949
vn -0.834667 -0.539800 -0.109298
vn -0.835019 -0.539837 -0.106390
vn -0.402569 -0.904743 -0.139205
vn -0.402569 -0.904743 -0.139205
vn -0.410037 -0.908595 -0.079530
vn -0.410947 -0.908866 -0.071312
vn 0.147922 -0.987209 -0.059478
vn 0.147922 -0.987209 -0.059478
vn 0.144930 -0.989207 -0.021571
vn 0.144345 -0.989422 -0.014452
vn 0.652870 -0.755570 0.053608
vn 0.652870 -0.755570 0.053608
vn 0.653649 -0.755253 0.048335
vn 0.653784 -0.755195 0.047404
vn 0.945804 -0.280738 0.163220
vn 0.945804 -0.280738 0.163220
vn 0.953982 -0.281308 0.103849
vn 0.954669 -0.281309 0.097330
vn 0.935078 0.279053 0.218538
vn 0.935078 0.279053 0.218538
vn 0.951913 0.281159 0.121700
vn 0.952069 0.281168 0.120455
vn 0.208281 0.051310 -0.976722
vn 0.208281 0.051310 -0.976722
vn 0.208281 0.051310 -0.976722
vn 0.208282 0.051310 -0.976722
vn 0.208281 0.051310 -0.976722
vn 0.208282 0.051310 -0.976722
vn 0.208282 0.051310 -0.976722
vn 0.208281 0.051310 -0.976722
vn 0.208281 0.051310 -0.976722
vn 0.208281 0.051310 -0.976722
vn 0.208281 0.051310 -0.976722
vn 0.647820 0.754436 0.105614
vn 0.648787 0.754671 0.097707
vn 0.120281 0.273893 0.954209
vn 0.249659 0.163503 0.954430
vn 0.138061 0.988922 0.054519
vn 0.138968 0.989265 0.045199
vn -0.047442 0.296175 0.953955
vn 0.120281 0.273893 0.954209
vn -0.416175 0.909177 -0.014008
vn -0.415985 0.909212 -0.017030
vn -0.199634 0.224726 0.953753
vn -0.047442 0.296175 0.953955
vn -0.838259 0.540132 -0.074697
vn -0.838536 0.540084 -0.071876
vn -0.289128 0.083446 0.953647
vn -0.199634 0.224726 0.953753
vn -0.994119 0.000000 -0.108295
vn -0.994398 0.000000 -0.105701
vn -0.289128 -0.083446 0.953647
vn -0.289128 0.083446 0.953647
vn -0.835019 -0.539837 -0.106390
vn -0.834667 -0.539800 -0.109298
vn -0.199634 -0.224726 0.953753
vn -0.289128 -0.083446 0.953647
vn -0.410947 -0.908866 -0.071312
vn -0.410037 -0.908595 -0.079530
vn -0.047442 -0.296176 0.953955
vn -0.199634 -0.224726 0.953753
vn 0.144345 -0.989422 -0.014452
vn 0.144930 -0.989207 -0.021571
vn 0.120281 -0.273893 0.954209
vn -0.047442 -0.296176 0.953955
vn 0.653784 -0.755195 0.047404
vn 0.653649 -0.755253 0.048335
vn 0.249660 -0.163503 0.954430
vn 0.120281 -0.273893 0.954209
vn 0.954669 -0.281309 0.097330
vn 0.953982 -0.281308 0.103849
vn 0.298151 0.000000 0.954519
vn 0.249660 -0.163503 0.954430
vn 0.952069 0.281168 0.120455
vn 0.951913 0.281159 0.121700
vn 0.249659 0.163503 0.954430
vn 0.298151 0.000000 0.954519
vn 0.298151 0.000000 0.954519
vn 0.249659 0.163503 0.954430
vn 0.120281 0.273893 0.954209
vn -0.047442 0.296175 0.953955
vn -0.199634 0.224726 0.953753
vn -0.289128 0.083446 0.953647
vn -0.289128 -0.083446 0.953647
vn -0.199634 -0.224726 0.953753
vn -0.047442 -0.296176 0.953955
vn 0.120281 -0.273893 0.954209
vn 0.249660 -0.163503 0.954430
s off
g cucumber_half_polySurface1 props
usemtl lambert3SG
f 1/42/1 2/43/2 13/44/3 12/45/4
f 2/43/5 3/53/6 14/55/7 13/44/8
f 3/53/9 4/52/10 15/94/11 14/55/12
f 4/52/13 5/51/14 16/93/15 15/94/16
f 5/51/17 6/50/18 17/92/19 16/93/20
f 6/50/21 7/49/22 18/91/23 17/92/24
f 7/49/25 8/48/26 19/59/27 18/91/28
f 8/48/29 9/47/30 20/58/31 19/59/32
f 9/47/33 10/46/34 21/57/35 20/58/36
f 10/46/37 11/54/38 22/56/39 21/57/40
f 11/54/41 1/42/42 12/45/43 22/56/44
f 12/65/45 13/66/46 24/67/47 23/68/48
f 13/66/49 14/69/50 25/70/51 24/67/52
f 14/69/53 15/63/54 26/22/55 25/70/56
f 15/63/57 16/62/58 27/23/59 26/22/60
f 16/62/61 17/61/62 28/26/63 27/23/64
f 17/61/65 18/60/66 29/30/67 28/26/68
f 18/60/69 19/83/70 30/64/71 29/30/72
f 19/83/73 20/1/74 31/4/75 30/64/76
f 20/1/77 21/2/78 32/3/79 31/4/80
f 21/2/81 22/5/82 33/6/83 32/3/84
f 22/5/85 12/9/86 23/10/87 33/6/88
f 23/68/89 24/67/90 35/71/91 34/72/92
f 24/67/93 25/70/94 36/73/95 35/71/96
f 25/70/97 26/22/98 37/25/99 36/73/100
f 26/22/101 27/23/102 38/24/103 37/25/104
f 27/23/105 28/26/106 39/27/107 38/24/108
f 28/26/109 29/30/110 40/31/111 39/27/112
f 29/30/113 30/64/114 41/84/115 40/31/116
f 30/64/117 31/4/118 42/8/119 41/84/120
f 31/4/121 32/3/122 43/7/123 42/8/124
f 32/3/125 33/6/126 44/11/127 43/7/128
f 33/6/129 23/10/130 34/12/131 44/11/132
f 34/72/133 35/71/134 46/74/135 45/75/136
f 35/71/137 36/73/138 47/76/139 46/74/140
f 36/73/141 37/25/142 48/29/143 47/76/144
f 37/25/145 38/24/146 49/28/147 48/29/148
f 38/24/149 39/27/150 50/32/151 49/28/152
f 39/27/153 40/31/154 51/35/155 50/32/156
f 40/31/157 41/84/158 52/86/159 51/35/160
f 41/84/161 42/8/162 53/85/163 52/86/164
f 42/8/165 43/7/166 54/14/167 53/85/168
f 43/7/169 44/11/170 55/13/171 54/14/172
f 44/11/173 34/12/174 45/15/175 55/13/176
f 45/75/177 46/74/178 57/77/179 56/78/180
f 46/74/181 47/76/182 58/79/183 57/77/184
f 47/76/185 48/29/186 59/34/187 58/79/188
f 48/29/189 49/28/190 60/33/191 59/34/192
f 49/28/193 50/32/194 61/36/195 60/33/196
f 50/32/197 51/35/198 62/39/199 61/36/200
f 51/35/201 52/86/202 63/88/203 62/39/204
f 52/86/205 53/85/206 64/87/207 63/88/208
f 53/85/209 54/14/210 65/17/211 64/87/212
f 54/14/213 55/13/214 66/16/215 65/17/216
f 55/13/217 45/15/218 56/18/219 66/16/220
f 10/46/221 9/47/222 8/48/223 7/49/224 6/50/225 5/51/226 4/52/227 3/53/228 2/43/229 1/42/230 11/54/231
f 56/78/232 57/77/233 68/80/234 67/95/235
f 57/77/236 58/79/237 69/82/238 68/80/239
f 58/79/240 59/34/241 70/38/242 69/82/243
f 59/34/244 60/33/245 71/37/246 70/38/247
f 60/33/248 61/36/249 72/40/250 71/37/251
f 61/36/252 62/39/253 73/41/254 72/40/255
f 62/39/256 63/88/257 74/90/258 73/41/259
f 63/88/260 64/87/261 75/89/262 74/90/263
f 64/87/264 65/17/265 76/20/266 75/89/267
f 65/17/268 66/16/269 77/19/270 76/20/271
f 66/16/272 56/18/273 67/21/274 77/19/275
f 77/81/276 67/96/277 68/97/278 69/98/279 70/99/280 71/100/281 72/101/282 73/102/283 74/103/284 75/104/285 76/105/286
